<svg width="71" height="67" viewBox="0 0 71 67" fill="none" xmlns="http://www.w3.org/2000/svg">
<ellipse cx="36.5" cy="35.5" rx="33.5" ry="31.5" fill="white"/>
<path d="M34.7757 0.034668H36.6659C55.4905 0.647383 70.3974 14.7255 70.9211 32.597V33.9304C70.5225 48.698 60.4352 61.0642 45.5421 65.3324C45.5321 65.3355 45.5215 65.3363 45.5112 65.3347C45.5008 65.3332 45.491 65.3293 45.4826 65.3235C45.4741 65.3176 45.4672 65.31 45.4625 65.3011C45.4578 65.2922 45.4554 65.2824 45.4555 65.2725V40.8186C45.4555 40.7318 45.5008 40.6885 45.5916 40.6885H52.9405C53.0047 40.6876 53.0409 40.6568 53.0491 40.5961L54.1626 32.4721C54.1727 32.3984 54.1383 32.3615 54.0595 32.3615H45.5256C45.4807 32.3615 45.4578 32.3399 45.4569 32.2965C45.4532 30.5247 45.4527 28.752 45.4555 26.9785C45.4582 25.4695 45.7813 24.0879 47.2769 23.4154C47.7388 23.2081 48.5599 23.0802 49.7403 23.0316C51.2524 22.9692 52.7797 22.9653 54.3221 23.0199C54.3354 23.0205 54.3487 23.0184 54.3612 23.0139C54.3737 23.0095 54.3851 23.0027 54.3947 22.9939C54.4044 22.9852 54.412 22.9747 54.4173 22.963C54.4225 22.9514 54.4252 22.9389 54.4252 22.9263V15.6739C54.4253 15.6434 54.4132 15.6139 54.3914 15.5913C54.3695 15.5686 54.3394 15.5545 54.307 15.5516C52.2495 15.3608 50.1953 15.2623 48.1443 15.2563C46.985 15.2537 46.0713 15.3001 45.4032 15.3955C39.5307 16.2358 36.3662 20.5365 36.3552 25.9885C36.3506 28.0864 36.3479 30.1895 36.347 32.2978C36.347 32.3412 36.324 32.3628 36.2782 32.3628L28.8564 32.3615C28.8106 32.3615 28.7877 32.3832 28.7877 32.4266V40.6547C28.7877 40.6719 28.7949 40.6885 28.8078 40.7007C28.8207 40.7129 28.8382 40.7197 28.8564 40.7197H36.2755C36.3176 40.7197 36.3387 40.7397 36.3387 40.7795L36.3043 66.6397H34.828C15.9964 66.0674 1.24628 52.0361 0.53833 34.3051V32.4513C1.15968 14.6904 15.9937 0.626569 34.7757 0.034668Z" fill="#053A6C"/>
</svg>
