<svg width="71" height="68" viewBox="0 0 71 68" fill="none" xmlns="http://www.w3.org/2000/svg">
<path d="M34.7757 0.64209H36.6659C55.5414 1.2483 70.2393 15.2822 70.9211 33.0743V34.798C70.3177 52.6656 55.3489 66.7242 36.5119 67.2472H34.8623C16.1037 66.6292 1.20229 52.7515 0.53833 34.9125V33.0587C0.927818 24.3272 4.25588 16.8831 10.5225 10.7265C16.9243 4.43676 25.5146 0.99723 34.7757 0.64209Z" fill="#053A6C"/>
<path d="M28.634 15.172C29.2184 15.6431 29.4919 16.2695 29.7784 16.9473C29.812 17.0258 29.8457 17.1042 29.8803 17.185C29.9904 17.4423 30.0999 17.6999 30.2093 17.9575C30.2858 18.1367 30.3625 18.3159 30.4391 18.4951C30.5987 18.8684 30.758 19.2419 30.9171 19.6154C31.1387 20.1356 31.3612 20.6553 31.5841 21.175C31.7556 21.575 31.9269 21.975 32.0983 22.375C32.1531 22.5028 32.1531 22.5028 32.209 22.6332C32.3118 22.8732 32.4144 23.1133 32.5171 23.3533C32.5476 23.4247 32.5782 23.496 32.6097 23.5695C32.6514 23.6672 32.6514 23.6672 32.694 23.7669C32.7182 23.8234 32.7424 23.88 32.7674 23.9383C32.9955 24.4939 32.9937 25.2121 32.7869 25.7773C32.4732 26.4302 31.935 26.8317 31.3704 27.2618C31.0722 27.4891 30.781 27.7246 30.4902 27.9612C30.392 28.0409 30.2937 28.1206 30.1955 28.2004C30.1495 28.2377 30.1035 28.275 30.0561 28.3134C29.4661 28.7919 28.8657 29.2561 28.2614 29.7165C29.3593 32.0193 30.8654 34.2477 32.7121 36.0269C32.8277 36.1419 32.8277 36.1419 32.9726 36.3269C33.1386 36.5284 33.3219 36.686 33.5207 36.8546C33.6887 37.0007 33.8504 37.1522 34.012 37.3053C34.5964 37.856 35.225 38.3377 35.8718 38.8132C35.9156 38.8458 35.9594 38.8783 36.0046 38.9119C37.1485 39.7607 38.3869 40.4506 39.6407 41.1235C39.8998 40.8715 40.1416 40.6101 40.3746 40.3338C40.409 40.2932 40.4434 40.2527 40.4788 40.2109C40.7582 39.8789 41.0263 39.5389 41.293 39.1967C41.5706 38.8426 41.8613 38.5012 42.1575 38.1625C42.3719 37.9166 42.5739 37.6655 42.7709 37.4054C43.1808 36.8893 43.6967 36.5603 44.3581 36.4736C44.8366 36.46 45.2042 36.5009 45.6523 36.6738C45.7256 36.7021 45.7256 36.7021 45.8004 36.731C46.5722 37.0335 47.3297 37.3714 48.0891 37.7032C48.4301 37.8519 48.7712 38.0005 49.1123 38.1488C49.1984 38.1862 49.2844 38.2236 49.3731 38.2621C49.9576 38.5154 50.5447 38.7616 51.1338 39.0038C51.2895 39.0683 51.4452 39.1327 51.6008 39.1971C51.822 39.2887 52.0434 39.3798 52.2655 39.4692C53.34 39.9019 54.199 40.311 54.7165 41.4123C55.0215 42.3893 54.6608 43.4898 54.4345 44.4437C54.3977 44.6022 54.361 44.7608 54.3244 44.9194C54.2479 45.25 54.1706 45.5804 54.0926 45.9106C53.9931 46.3323 53.8952 46.7543 53.7978 47.1765C53.7223 47.5033 53.6461 47.83 53.5698 48.1566C53.5335 48.3122 53.4973 48.4677 53.4613 48.6233C53.4107 48.8411 53.3594 49.0586 53.3079 49.2761C53.2933 49.3393 53.2788 49.4025 53.2638 49.4676C53.0764 50.2493 52.8375 50.9484 52.1515 51.4229C51.4865 51.7943 50.9039 51.7959 50.1638 51.7769C50.0414 51.7752 49.9189 51.7735 49.7965 51.7719C43.1166 51.6562 36.4206 49.31 31.0881 45.3109C31.0448 45.2786 31.0014 45.2463 30.9567 45.2131C30.3526 44.7631 29.7747 44.2852 29.2037 43.7947C29.1258 43.7281 29.1258 43.7281 29.0463 43.6602C28.9043 43.5378 28.7639 43.4139 28.6238 43.2894C28.5653 43.2377 28.5067 43.1861 28.4463 43.1328C27.9518 42.6897 27.4777 42.2275 27.0066 41.7597C26.9452 41.6988 26.8837 41.6379 26.8204 41.5752C26.4644 41.2197 26.1238 40.8562 25.7971 40.4737C25.7634 40.4349 25.7297 40.396 25.695 40.356C25.2001 39.7857 24.7271 39.2011 24.2751 38.5966C24.239 38.5485 24.2029 38.5004 24.1658 38.4508C23.2055 37.1642 22.3719 35.8115 21.5933 34.4092C21.5598 34.3492 21.5263 34.2891 21.4917 34.2272C19.0473 29.8181 17.7062 24.6373 17.6413 19.6066C17.6396 19.4836 17.6372 19.3606 17.6341 19.2377C17.6153 18.4063 17.6794 17.7368 18.2455 17.0727C18.7652 16.5742 19.4627 16.4039 20.1482 16.2472C20.2171 16.2309 20.286 16.2147 20.3571 16.1979C20.5827 16.145 20.8086 16.0929 21.0344 16.0409C21.1931 16.0041 21.3518 15.9673 21.5105 15.9305C21.8424 15.8536 22.1745 15.7772 22.5066 15.7011C22.9294 15.6042 23.3518 15.5055 23.7742 15.4064C24.1017 15.3298 24.4294 15.2545 24.7573 15.1794C24.913 15.1435 25.0686 15.1072 25.2241 15.0705C27.6858 14.4912 27.6858 14.4912 28.634 15.172Z" fill="white"/>
</svg>
