<svg width="236" height="102" viewBox="0 0 236 102" fill="none" xmlns="http://www.w3.org/2000/svg">
<ellipse cx="110.619" cy="25.9583" rx="25.097" ry="25" fill="#D9D9D9"/>
<path d="M96.8936 19.9038L110.422 33.3804L123.951 19.9038" stroke="#053A6C" stroke-width="13" stroke-linecap="round"/>
<path d="M33.3504 86V69.2H37.0704L42.0144 81.56L46.9824 69.2H50.7024V86H49.1184V70.904H48.0144L42.9744 83.312H41.1024L36.0384 70.904H34.9344V86H33.3504ZM56.9002 86.12C56.1642 86.104 55.4922 85.968 54.8842 85.712C54.2762 85.456 53.7882 85.064 53.4202 84.536C53.0522 84.008 52.8682 83.352 52.8682 82.568C52.8682 81.336 53.2202 80.376 53.9242 79.688C54.6282 79 55.6042 78.568 56.8522 78.392C58.1002 78.216 59.5402 78.272 61.1722 78.56V77.648C61.1722 77.024 60.9802 76.536 60.5962 76.184C60.2282 75.816 59.7482 75.568 59.1562 75.44C58.5802 75.312 57.9642 75.296 57.3082 75.392C56.6682 75.488 56.0682 75.688 55.5082 75.992C54.9642 76.296 54.5482 76.688 54.2602 77.168L53.2282 76.088C53.7082 75.496 54.2762 75.024 54.9322 74.672C55.6042 74.32 56.3082 74.096 57.0442 74C57.7802 73.888 58.4922 73.888 59.1802 74C59.8842 74.112 60.5082 74.328 61.0522 74.648C61.6762 74.968 62.1002 75.392 62.3242 75.92C62.5642 76.448 62.7002 77.064 62.7322 77.768C62.7642 78.456 62.7882 79.208 62.8042 80.024L62.7802 86H61.1962V84.872C60.5882 85.288 59.9002 85.6 59.1322 85.808C58.3802 86.016 57.6362 86.12 56.9002 86.12ZM61.1722 83.336V79.832C59.8602 79.656 58.6842 79.616 57.6442 79.712C56.6202 79.808 55.8122 80.088 55.2202 80.552C54.6442 81.016 54.3562 81.688 54.3562 82.568C54.3562 83.128 54.5162 83.568 54.8362 83.888C55.1722 84.208 55.5962 84.424 56.1082 84.536C56.6362 84.632 57.2042 84.648 57.8122 84.584C58.4362 84.52 59.0442 84.384 59.6362 84.176C60.2282 83.952 60.7402 83.672 61.1722 83.336ZM64.962 84.704L65.898 83.648C66.426 84.032 66.946 84.328 67.458 84.536C67.986 84.728 68.506 84.816 69.018 84.8C69.338 84.8 69.642 84.752 69.93 84.656C70.234 84.56 70.522 84.416 70.794 84.224C71.13 83.968 71.362 83.648 71.49 83.264C71.618 82.88 71.61 82.504 71.466 82.136C71.338 81.768 71.098 81.472 70.746 81.248C70.41 81.024 70.01 80.832 69.546 80.672C69.098 80.512 68.634 80.36 68.154 80.216C67.674 80.056 67.218 79.856 66.786 79.616C66.034 79.184 65.53 78.664 65.274 78.056C65.034 77.448 65.002 76.848 65.178 76.256C65.354 75.648 65.706 75.128 66.234 74.696C66.778 74.264 67.458 74.008 68.274 73.928C69.09 73.848 69.898 73.92 70.698 74.144C71.498 74.368 72.122 74.688 72.57 75.104L71.586 76.088C71.138 75.832 70.658 75.64 70.146 75.512C69.65 75.368 69.178 75.296 68.73 75.296C68.17 75.312 67.69 75.448 67.29 75.704C66.906 75.96 66.69 76.352 66.642 76.88C66.578 77.376 66.706 77.768 67.026 78.056C67.362 78.344 67.826 78.592 68.418 78.8C69.026 79.008 69.706 79.24 70.458 79.496C71.354 79.816 72.034 80.304 72.498 80.96C72.978 81.616 73.106 82.432 72.882 83.408C72.738 84.208 72.37 84.84 71.778 85.304C71.202 85.752 70.506 86.024 69.69 86.12C68.89 86.232 68.066 86.176 67.218 85.952C66.386 85.712 65.634 85.296 64.962 84.704ZM85.8641 86H84.2801V69.2H85.8641V86ZM98.6805 86H97.0965V78.848C97.0965 78.032 96.9205 77.376 96.5685 76.88C96.2325 76.368 95.7845 75.992 95.2245 75.752C94.6805 75.512 94.0965 75.392 93.4725 75.392C92.8805 75.392 92.3045 75.528 91.7445 75.8C91.1845 76.056 90.7285 76.44 90.3765 76.952C90.0245 77.464 89.8485 78.096 89.8485 78.848V86H88.2645V74H89.8485V75.44C90.2485 74.896 90.7765 74.496 91.4325 74.24C92.0885 73.968 92.7845 73.84 93.5205 73.856C94.4325 73.856 95.2805 74.04 96.0645 74.408C96.8485 74.776 97.4805 75.328 97.9605 76.064C98.4405 76.8 98.6805 77.728 98.6805 78.848V86ZM107.714 70.592C106.674 70.544 105.922 70.648 105.458 70.904C105.01 71.144 104.722 71.528 104.594 72.056C104.482 72.584 104.426 73.232 104.426 74H106.826V75.392H104.426V86H102.866V75.392H100.61V74H102.866C102.866 72.944 102.986 72.04 103.226 71.288C103.482 70.52 103.954 69.944 104.642 69.56C105.346 69.176 106.37 69.024 107.714 69.104V70.592ZM114.247 86.288C113.111 86.288 112.103 86.04 111.223 85.544C110.359 85.032 109.679 84.328 109.183 83.432C108.687 82.52 108.439 81.464 108.439 80.264C108.439 78.856 108.695 77.68 109.207 76.736C109.735 75.792 110.439 75.08 111.319 74.6C112.199 74.12 113.175 73.88 114.247 73.88C115.383 73.88 116.391 74.12 117.271 74.6C118.151 75.08 118.831 75.792 119.311 76.736C119.807 77.68 120.055 78.856 120.055 80.264C120.055 81.464 119.807 82.52 119.311 83.432C118.831 84.328 118.151 85.032 117.271 85.544C116.391 86.04 115.383 86.288 114.247 86.288ZM114.247 84.752C115.159 84.752 115.935 84.552 116.575 84.152C117.215 83.752 117.695 83.216 118.015 82.544C118.351 81.856 118.519 81.096 118.519 80.264C118.519 78.856 118.151 77.696 117.415 76.784C116.679 75.872 115.623 75.416 114.247 75.416C113.303 75.416 112.511 75.632 111.871 76.064C111.247 76.48 110.775 77.056 110.455 77.792C110.135 78.512 109.975 79.336 109.975 80.264C109.975 81.112 110.135 81.88 110.455 82.568C110.775 83.24 111.247 83.776 111.871 84.176C112.511 84.56 113.303 84.752 114.247 84.752ZM122.225 86V74.192H123.785V75.368C124.297 74.792 124.921 74.416 125.657 74.24C126.409 74.064 127.393 74.144 128.609 74.48L127.913 75.896C127.145 75.624 126.449 75.592 125.825 75.8C125.201 75.992 124.705 76.32 124.337 76.784C123.969 77.248 123.785 77.728 123.785 78.224V86H122.225ZM148.762 86H147.202V78.848C147.202 77.696 146.89 76.824 146.266 76.232C145.658 75.64 144.866 75.344 143.89 75.344C142.898 75.344 142.082 75.64 141.442 76.232C140.802 76.824 140.482 77.696 140.482 78.848V86H138.946V78.848C138.946 77.648 138.618 76.768 137.962 76.208C137.306 75.632 136.466 75.344 135.442 75.344C134.962 75.344 134.458 75.472 133.93 75.728C133.418 75.968 132.978 76.352 132.61 76.88C132.258 77.392 132.082 78.048 132.082 78.848V86H130.522V74H132.082V75.344C132.482 74.864 132.97 74.504 133.546 74.264C134.138 74.008 134.762 73.872 135.418 73.856C136.218 73.856 137.01 74.024 137.794 74.36C138.578 74.68 139.242 75.2 139.786 75.92C140.234 75.216 140.834 74.704 141.586 74.384C142.338 74.048 143.138 73.88 143.986 73.88C144.802 73.88 145.57 74.072 146.29 74.456C147.026 74.824 147.618 75.384 148.066 76.136C148.53 76.872 148.762 77.776 148.762 78.848V86ZM154.705 86.12C153.969 86.104 153.297 85.968 152.689 85.712C152.081 85.456 151.593 85.064 151.225 84.536C150.857 84.008 150.673 83.352 150.673 82.568C150.673 81.336 151.025 80.376 151.729 79.688C152.433 79 153.409 78.568 154.657 78.392C155.905 78.216 157.345 78.272 158.977 78.56V77.648C158.977 77.024 158.785 76.536 158.401 76.184C158.033 75.816 157.553 75.568 156.961 75.44C156.385 75.312 155.769 75.296 155.113 75.392C154.473 75.488 153.873 75.688 153.313 75.992C152.769 76.296 152.353 76.688 152.065 77.168L151.033 76.088C151.513 75.496 152.081 75.024 152.737 74.672C153.409 74.32 154.113 74.096 154.849 74C155.585 73.888 156.297 73.888 156.985 74C157.689 74.112 158.313 74.328 158.857 74.648C159.481 74.968 159.905 75.392 160.129 75.92C160.369 76.448 160.505 77.064 160.537 77.768C160.569 78.456 160.593 79.208 160.609 80.024L160.585 86H159.001V84.872C158.393 85.288 157.705 85.6 156.937 85.808C156.185 86.016 155.441 86.12 154.705 86.12ZM158.977 83.336V79.832C157.665 79.656 156.489 79.616 155.449 79.712C154.425 79.808 153.617 80.088 153.025 80.552C152.449 81.016 152.161 81.688 152.161 82.568C152.161 83.128 152.321 83.568 152.641 83.888C152.977 84.208 153.401 84.424 153.913 84.536C154.441 84.632 155.009 84.648 155.617 84.584C156.241 84.52 156.849 84.384 157.441 84.176C158.033 83.952 158.545 83.672 158.977 83.336ZM172.535 84.488C171.703 85.224 170.831 85.72 169.919 85.976C169.023 86.216 168.151 86.24 167.303 86.048C166.455 85.872 165.687 85.512 164.999 84.968C164.311 84.408 163.767 83.704 163.367 82.856C162.967 81.992 162.767 81.008 162.767 79.904C162.767 78.816 162.967 77.856 163.367 77.024C163.767 76.192 164.311 75.52 164.999 75.008C165.687 74.496 166.455 74.16 167.303 74C168.151 73.84 169.031 73.888 169.943 74.144C170.855 74.384 171.727 74.856 172.559 75.56L171.599 76.712C170.815 76.088 169.999 75.712 169.151 75.584C168.303 75.456 167.511 75.552 166.775 75.872C166.055 76.176 165.471 76.672 165.023 77.36C164.575 78.048 164.351 78.896 164.351 79.904C164.351 80.976 164.583 81.888 165.047 82.64C165.511 83.376 166.111 83.92 166.847 84.272C167.599 84.608 168.391 84.704 169.223 84.56C170.071 84.416 170.871 83.984 171.623 83.264L172.535 84.488ZM175.853 72.368C175.533 72.368 175.261 72.264 175.037 72.056C174.829 71.832 174.725 71.568 174.725 71.264C174.725 70.944 174.829 70.68 175.037 70.472C175.261 70.248 175.533 70.136 175.853 70.136C176.157 70.136 176.413 70.248 176.621 70.472C176.845 70.68 176.957 70.944 176.957 71.264C176.957 71.568 176.845 71.832 176.621 72.056C176.413 72.264 176.157 72.368 175.853 72.368ZM176.597 86H175.085V74H176.597V86ZM184.465 86.288C183.329 86.288 182.321 86.04 181.441 85.544C180.577 85.032 179.897 84.328 179.401 83.432C178.905 82.52 178.657 81.464 178.657 80.264C178.657 78.856 178.913 77.68 179.425 76.736C179.953 75.792 180.657 75.08 181.537 74.6C182.417 74.12 183.393 73.88 184.465 73.88C185.601 73.88 186.609 74.12 187.489 74.6C188.369 75.08 189.049 75.792 189.529 76.736C190.025 77.68 190.273 78.856 190.273 80.264C190.273 81.464 190.025 82.52 189.529 83.432C189.049 84.328 188.369 85.032 187.489 85.544C186.609 86.04 185.601 86.288 184.465 86.288ZM184.465 84.752C185.377 84.752 186.153 84.552 186.793 84.152C187.433 83.752 187.913 83.216 188.233 82.544C188.569 81.856 188.737 81.096 188.737 80.264C188.737 78.856 188.369 77.696 187.633 76.784C186.897 75.872 185.841 75.416 184.465 75.416C183.521 75.416 182.729 75.632 182.089 76.064C181.465 76.48 180.993 77.056 180.673 77.792C180.353 78.512 180.193 79.336 180.193 80.264C180.193 81.112 180.353 81.88 180.673 82.568C180.993 83.24 181.465 83.776 182.089 84.176C182.729 84.56 183.521 84.752 184.465 84.752ZM183.769 72.32H184.849L185.809 69.128H184.393L183.769 72.32ZM202.86 86H201.276V78.848C201.276 78.032 201.1 77.376 200.748 76.88C200.412 76.368 199.964 75.992 199.404 75.752C198.86 75.512 198.276 75.392 197.652 75.392C197.06 75.392 196.484 75.528 195.924 75.8C195.364 76.056 194.908 76.44 194.556 76.952C194.204 77.464 194.028 78.096 194.028 78.848V86H192.444V74H194.028V75.44C194.428 74.896 194.956 74.496 195.612 74.24C196.268 73.968 196.964 73.84 197.7 73.856C198.612 73.856 199.46 74.04 200.244 74.408C201.028 74.776 201.66 75.328 202.14 76.064C202.62 76.8 202.86 77.728 202.86 78.848V86Z" fill="white"/>
</svg>
