<svg width="419" height="330" viewBox="0 0 419 330" fill="none" xmlns="http://www.w3.org/2000/svg">
<g filter="url(#filter0_d_10_2781)">
<path d="M156.629 204.779L157.391 209.439C157.391 209.68 157.737 209.749 157.841 209.542L202.826 129.285C202.826 129.285 202.86 129.112 202.826 129.043L201.025 125.833C201.025 125.833 200.679 125.66 200.575 125.833L156.629 204.64C156.629 204.64 156.595 204.744 156.629 204.813V204.779Z" fill="white"/>
<path d="M207.57 109.057C209.693 109.057 211.414 107.295 211.414 105.122C211.414 102.948 209.693 101.187 207.57 101.187C205.447 101.187 203.726 102.948 203.726 105.122C203.726 107.295 205.447 109.057 207.57 109.057Z" fill="white"/>
<path d="M215.362 88.3108C219.864 88.3108 223.5 84.5482 223.5 79.9226C223.5 75.297 219.864 71.5344 215.362 71.5344C210.86 71.5344 207.224 75.297 207.224 79.9226C207.224 84.5482 210.86 88.3108 215.362 88.3108Z" fill="white"/>
<path d="M231.118 35.4273C233.566 35.4273 235.551 33.3873 235.551 30.8707C235.551 28.3542 233.566 26.3142 231.118 26.3142C228.67 26.3142 226.686 28.3542 226.686 30.8707C226.686 33.3873 228.67 35.4273 231.118 35.4273Z" fill="white"/>
<path d="M240.295 93.4887C243.62 93.4887 246.321 90.6926 246.321 87.2752C246.321 83.8578 243.62 81.0618 240.295 81.0618C236.971 81.0618 234.27 83.8578 234.27 87.2752C234.27 90.6926 236.971 93.4887 240.295 93.4887Z" fill="white"/>
<path d="M245.386 25.0025C248.71 25.0025 251.412 22.2064 251.412 18.789C251.412 15.3716 248.71 12.5756 245.386 12.5756C242.061 12.5756 239.36 15.3716 239.36 18.789C239.36 22.2064 242.061 25.0025 245.386 25.0025Z" fill="white"/>
<path d="M241.265 46.4734C243.724 46.4734 245.698 44.4368 245.698 41.9169C245.698 39.397 243.724 37.3604 241.265 37.3604C238.806 37.3604 236.832 39.397 236.832 41.9169C236.832 44.4368 238.806 46.4734 241.265 46.4734Z" fill="white"/>
<path d="M194.064 89.5536C195.633 89.5536 196.904 88.2399 196.904 86.6194C196.904 84.999 195.633 83.6853 194.064 83.6853C192.496 83.6853 191.225 84.999 191.225 86.6194C191.225 88.2399 192.496 89.5536 194.064 89.5536Z" fill="white"/>
<path d="M72.8937 251.967C70.6774 251.967 68.8766 253.831 68.8766 256.109C68.8766 258.387 70.6774 260.251 72.8937 260.251C75.1101 260.251 76.9108 258.387 76.9108 256.109C76.9108 253.831 75.1101 251.967 72.8937 251.967Z" fill="white"/>
<path d="M195.449 119.93C184.195 140.193 173.009 160.456 161.789 180.719C158.949 185.862 157.599 190.108 157.01 195.562C156.975 196.045 157.045 196.08 157.287 195.666L198.289 122.485C198.428 122.243 198.393 122.001 198.185 121.794L196.281 119.827C196.038 119.585 195.623 119.62 195.449 119.93Z" fill="white"/>
<path d="M152.093 130.562C157.079 128.008 162.412 130.942 166.326 133.842C166.533 133.98 166.707 133.945 166.81 133.738L177.58 114.683C177.684 114.476 177.511 114.235 177.303 114.269C172.767 115.305 169.996 118.17 168.957 122.83C168.923 123.037 168.784 123.141 168.542 123.106C163.001 122.416 150.777 121.863 151.781 130.355C151.781 130.562 151.919 130.597 152.093 130.528V130.562Z" fill="white"/>
<path d="M107.039 268.328C110.405 268.328 113.134 265.531 113.134 262.08C113.134 258.63 110.405 255.833 107.039 255.833C103.673 255.833 100.944 258.63 100.944 262.08C100.944 265.531 103.673 268.328 107.039 268.328Z" fill="white"/>
<path d="M170.654 135.568C172.49 135.947 173.875 135.568 174.914 133.773C178.446 127.594 181.944 121.38 185.407 115.167C185.58 114.891 185.476 114.718 185.164 114.718H184.576C184.368 114.718 184.195 114.684 183.987 114.615C182.636 114.131 181.944 114.407 181.251 115.719C177.65 122.174 174.048 128.664 170.447 135.153C170.343 135.326 170.447 135.533 170.654 135.602V135.568Z" fill="white"/>
<path d="M192.575 117.514C192.679 117.342 192.575 117.1 192.437 117.031L189.701 115.754C189.493 115.65 189.32 115.719 189.216 115.926C184.887 123.693 180.559 131.494 176.195 139.261C175.745 140.055 175.503 140.884 175.433 141.816C175.225 144.37 174.914 146.959 174.533 149.513C174.533 149.652 174.671 149.721 174.741 149.582L192.575 117.514Z" fill="white"/>
<path d="M256.468 41.261C258.926 41.261 260.9 39.2244 260.9 36.7045C260.9 34.1846 258.926 32.1479 256.468 32.1479C254.009 32.1479 252.035 34.1846 252.035 36.7045C252.035 39.2244 254.009 41.261 256.468 41.261Z" fill="white"/>
<path d="M192.471 107.193C195.623 107.193 198.185 104.569 198.185 101.325C198.185 98.0798 195.623 95.4563 192.471 95.4563C189.32 95.4563 186.757 98.0798 186.757 101.325C186.757 104.569 189.32 107.193 192.471 107.193Z" fill="white"/>
<path d="M226.062 66.0459C228.867 66.0459 231.118 63.6986 231.118 60.8335C231.118 57.9684 228.867 55.6211 226.062 55.6211C223.257 55.6211 221.006 57.9684 221.006 60.8335C221.006 63.6986 223.257 66.0459 226.062 66.0459Z" fill="white"/>
<path d="M204.419 230.979C204.626 231.22 205.007 231.186 205.18 230.91L245.109 159.558C245.282 159.248 245.317 158.902 245.178 158.557L243.585 154.035C243.585 154.035 243.447 153.932 243.412 154.035C235.516 168.119 227.725 182.099 219.968 195.976C219.206 197.357 218.478 199.255 217.509 200.809C212.176 209.266 207.501 218.379 202.549 227.113C202.445 227.285 202.445 227.492 202.514 227.699C202.964 228.873 203.622 229.978 204.419 230.979Z" fill="white"/>
<path d="M208.817 207.402C207.328 208.162 204.661 208.645 203.795 210.164C202.306 212.718 200.852 215.273 199.467 217.896C198.878 219.001 199.986 221.659 200.367 222.729C200.402 222.867 200.575 222.867 200.644 222.729L209.024 207.644C209.024 207.644 208.955 207.299 208.782 207.402H208.817Z" fill="white"/>
<path d="M215.777 119.309C217.9 119.309 219.621 117.532 219.621 115.339C219.621 113.147 217.9 111.37 215.777 111.37C213.654 111.37 211.933 113.147 211.933 115.339C211.933 117.532 213.654 119.309 215.777 119.309Z" fill="white"/>
<path d="M233.023 97.7C233.023 95.0075 230.911 92.8328 228.279 92.8328C225.647 92.8328 223.534 95.0075 223.534 97.7C223.534 100.392 225.647 102.567 228.279 102.567C230.911 102.567 233.023 100.392 233.023 97.7Z" fill="white"/>
<path d="M264.848 131.184C265.125 131.391 265.506 131.184 265.506 130.839C265.402 123.866 257.783 122.934 252.658 123.313C252.416 123.313 252.173 123.486 252.069 123.693L245.386 135.671C245.247 135.947 245.455 136.293 245.767 136.258C251.412 135.706 259.065 126.627 264.848 131.184Z" fill="white"/>
<path d="M251.481 172.848L230.495 210.371C230.287 210.716 230.391 210.889 230.807 210.923L232.538 210.992C232.711 210.992 232.919 211.027 233.058 211.096C233.958 211.475 234.616 211.268 235.066 210.474C241.196 199.532 247.325 188.589 253.455 177.681C253.628 177.405 253.766 177.094 253.94 176.784C254.009 176.611 254.009 176.438 253.94 176.266L252.277 172.917C252.035 172.434 251.792 172.434 251.515 172.917L251.481 172.848Z" fill="white"/>
<path d="M256.26 181.582C256.19 181.375 255.913 181.34 255.81 181.547L237.352 214.34C237.248 214.513 237.213 214.72 237.248 214.927C237.733 218.345 236.486 220.588 233.473 221.624C233.265 221.693 233.092 221.866 232.954 222.073L222.08 241.472C221.941 241.68 222.011 241.852 222.218 241.956C222.669 242.163 223.119 242.197 223.604 242.128C223.777 242.094 223.95 242.128 224.123 242.163C225.404 242.646 226.132 242.163 226.79 240.989C237.005 222.763 247.221 204.537 257.403 186.242C257.61 185.862 257.645 185.379 257.506 184.965L256.225 181.547L256.26 181.582Z" fill="white"/>
<path d="M269.8 106.503C274.371 106.503 278.042 102.705 278.042 98.0108C278.042 93.3162 274.337 89.519 269.8 89.519C265.264 89.519 261.558 93.3162 261.558 98.0108C261.558 102.705 265.264 106.503 269.8 106.503Z" fill="white"/>
<path d="M231.499 241.438C233.404 240.713 236.555 239.678 237.663 237.71C241.542 230.91 248.849 217.896 259.584 198.565C260.796 196.39 260.034 193.491 259.238 191.351C259.134 191.109 259.03 191.109 258.926 191.351L231.188 241.024C231.049 241.231 231.257 241.507 231.499 241.404V241.438Z" fill="white"/>
<path d="M209.821 146.407C209.786 146.821 209.821 146.855 210.063 146.476L226.478 117.1C226.478 117.1 226.443 116.858 226.305 116.893C215.535 121.656 210.998 135.499 209.821 146.407Z" fill="white"/>
<path d="M217.82 191.696C217.82 191.696 218.028 191.73 218.097 191.627L242.235 148.547C242.235 148.547 242.235 148.478 242.235 148.443L241.854 142.644C241.854 142.437 241.577 142.403 241.507 142.575L215.189 189.694C215.189 189.694 215.189 189.901 215.258 189.935L217.82 191.696Z" fill="white"/>
<path d="M207.605 189.556C208.678 189.383 211.033 189.452 211.622 188.382C223.811 166.704 236.14 145.06 247.983 123.175C248.087 122.968 248.087 122.761 247.983 122.588L246.702 119.551C246.598 119.309 246.252 119.275 246.113 119.516L207.224 189.072C207.085 189.314 207.293 189.659 207.57 189.59L207.605 189.556Z" fill="white"/>
<path d="M208.574 124.936C206.462 124.936 204.73 126.696 204.73 128.871C204.73 131.046 206.462 132.806 208.574 132.806C210.687 132.806 212.418 131.046 212.418 128.871C212.418 126.696 210.687 124.936 208.574 124.936Z" fill="white"/>
<path d="M185.718 213.754L189.389 212.131C189.597 212.028 189.701 211.89 189.77 211.648C190.844 205.193 193.995 198.255 199.12 194.147C200.402 193.111 201.233 192.317 201.544 191.73C215.535 166.67 229.56 141.609 243.585 116.548C243.689 116.341 243.654 116.202 243.447 116.099L240.988 115.063C240.745 114.96 240.572 115.063 240.468 115.236L185.545 213.478C185.545 213.478 185.614 213.788 185.753 213.719L185.718 213.754Z" fill="white"/>
<path d="M212.799 225.939C215.95 221.762 218.963 218.068 223.361 214.237C224.227 213.477 224.92 212.649 225.474 211.682C233.508 197.426 241.507 183.17 249.438 168.948C249.611 168.637 249.611 168.223 249.438 167.912L247.36 163.804C247.36 163.804 247.048 163.632 246.944 163.804L212.453 225.732C212.453 225.732 212.453 225.939 212.522 225.973C212.591 226.042 212.73 226.008 212.764 225.939H212.799Z" fill="white"/>
<path d="M204.315 134.152L159.573 214.41C159.469 214.617 159.469 214.789 159.573 214.962L161.166 217.482C161.408 217.862 161.616 217.827 161.824 217.482L205.769 139.02C205.873 138.847 205.908 138.64 205.908 138.398C205.769 136.845 205.354 135.43 204.661 134.152C204.523 133.911 204.419 133.911 204.28 134.152H204.315Z" fill="white"/>
<path d="M166.049 224.455C166.187 224.696 166.326 224.731 166.464 224.455C179.589 201.016 192.714 177.543 205.838 154.07C207.12 151.757 207.57 151.205 207.743 148.996C207.882 147.304 207.57 146.096 206.843 145.302C206.67 145.129 206.531 145.129 206.393 145.371L164.49 220.692C164.386 220.899 164.386 221.106 164.49 221.313L166.083 224.42L166.049 224.455Z" fill="white"/>
<path d="M168.75 235.466C170.1 233.568 171.035 231.497 171.555 229.218C172.42 225.249 174.117 222.591 176.957 219.829C177.892 218.932 178.481 218.276 178.723 217.827C197.874 183.722 217.024 149.617 236.174 115.477C236.278 115.27 236.244 115.167 236.001 115.167L232.157 115.236C231.915 115.236 231.742 115.339 231.603 115.581C224.539 128.25 217.474 140.953 210.41 153.621C209.544 155.14 208.747 156.314 208.782 158.178C208.782 159.144 209.094 162.32 208.436 163.114C208.332 163.218 208.159 163.148 208.159 163.01L208.366 158.454C208.366 158.143 207.951 158.005 207.812 158.281L168.022 229.805C167.919 230.012 167.884 230.219 167.884 230.461L168.473 235.466C168.473 235.466 168.646 235.639 168.75 235.535V235.466Z" fill="white"/>
<path d="M198.947 209.197C199.744 208.99 200.332 208.472 200.782 207.678C203.553 202.707 206.358 197.702 209.198 192.731C209.336 192.49 209.198 192.214 208.921 192.179C207.085 192.041 205.596 192.697 204.488 194.216C202.306 197.219 198.393 203.778 198.254 208.61C198.254 208.99 198.601 209.301 198.947 209.197Z" fill="white"/>
<path d="M237.421 264.497C237.421 264.255 237.733 264.152 237.871 264.359L239.256 266.465C239.43 266.706 239.568 266.706 239.707 266.465L250.65 246.961C250.754 246.789 250.788 246.581 250.684 246.374L249.299 242.612C249.161 242.267 249.022 242.267 248.849 242.577L220.764 292.803C220.66 293.01 220.625 293.217 220.764 293.424L222.288 296.841C222.357 297.014 222.634 297.049 222.738 296.841C227.828 287.763 232.884 278.684 237.906 269.606C238.737 268.121 237.456 266.154 237.421 264.497Z" fill="white"/>
<path d="M240.642 279.754L239.741 275.232C239.672 274.887 239.568 274.887 239.395 275.163L225.474 299.983C225.3 300.328 225.612 300.708 225.958 300.604C229.179 299.534 230.391 294.77 231.395 291.733C231.499 291.456 231.915 291.456 231.984 291.733C232.157 292.457 232.573 292.872 233.162 292.975C233.404 293.044 233.577 292.941 233.681 292.734L240.503 280.376C240.607 280.169 240.642 279.961 240.607 279.72L240.642 279.754Z" fill="white"/>
<path d="M241.057 304.712C238.391 304.712 236.209 306.956 236.209 309.717C236.209 312.479 238.391 314.722 241.057 314.722C243.724 314.722 245.905 312.479 245.905 309.717C245.905 306.956 243.724 304.712 241.057 304.712Z" fill="white"/>
<path d="M216.643 319.452C219.55 319.452 221.907 317.025 221.907 314.032C221.907 311.039 219.55 308.613 216.643 308.613C213.736 308.613 211.379 311.039 211.379 314.032C211.379 317.025 213.736 319.452 216.643 319.452Z" fill="white"/>
<path d="M193.025 230.426C192.921 230.185 192.575 230.185 192.471 230.426L187.346 239.539C187.207 239.816 187.311 240.161 187.554 240.299C188.42 240.713 189.285 240.886 190.22 240.782C190.463 240.748 190.67 240.61 190.774 240.402L194.272 234.12C194.48 233.775 194.48 233.326 194.272 232.981L192.956 230.461L193.025 230.426Z" fill="white"/>
<path d="M253.039 250.862L242.685 269.364C242.685 269.364 242.685 269.571 242.754 269.64L245.421 271.194C245.421 271.194 245.628 271.194 245.698 271.125L255.498 253.347C255.498 253.347 255.498 253.175 255.498 253.106L253.351 250.862C253.351 250.862 253.108 250.793 253.039 250.896V250.862Z" fill="white"/>
<path d="M197.493 236.951C197.493 236.951 197.181 236.847 197.077 236.985L195.415 239.954C195.276 240.161 195.519 240.437 195.726 240.333L198.739 238.884C198.739 238.884 198.912 238.608 198.809 238.469L197.458 236.951H197.493Z" fill="white"/>
<path d="M220.383 220.416L207.882 234.396C207.708 234.569 207.743 234.741 207.882 234.914L210.34 237.158C210.617 237.399 211.033 237.33 211.206 237.02L220.487 220.519C220.764 220.036 220.695 220.002 220.348 220.416H220.383Z" fill="white"/>
<path d="M241.3 287.107L236.521 295.702C236.382 295.944 236.486 296.255 236.694 296.393C242.789 299.983 241.958 289.972 241.577 287.176C241.577 287.038 241.369 286.969 241.265 287.107H241.3Z" fill="white"/>
<path d="M274.787 280.479L271.566 279.271C271.566 279.271 271.255 279.271 271.185 279.409L262.459 295.357C262.459 295.357 262.32 295.668 262.355 295.875L262.736 301.64C262.736 301.881 263.047 301.95 263.151 301.778C264.052 300.432 264.917 299.016 265.748 297.497C266.926 295.392 266.545 293.044 266.025 290.87C265.852 290.214 266.406 289.627 267.064 289.731L269.454 290.179C269.662 290.214 269.835 290.145 269.973 289.938L274.995 280.928C275.099 280.756 274.995 280.514 274.821 280.479H274.787Z" fill="white"/>
<path d="M274.544 289.42L272.536 293.044C272.432 293.251 272.432 293.424 272.536 293.631C273.644 295.944 274.475 298.36 275.029 300.846C275.064 301.087 275.376 301.191 275.549 301.053C279.289 298.188 276.969 292.734 275.029 289.42C274.925 289.247 274.648 289.247 274.579 289.42H274.544Z" fill="white"/>
<path d="M278.561 282.896C278.561 282.896 278.25 282.827 278.181 282.999L276.137 286.658C276.033 286.865 276.068 287.107 276.241 287.245C278.458 288.971 280.258 291.077 281.644 293.597C281.782 293.873 282.163 293.804 282.267 293.528C283.687 288.937 282.44 285.381 278.561 282.896Z" fill="white"/>
<path d="M253.039 273.058L260.415 259.457C260.415 259.457 260.45 259.25 260.415 259.146L258.822 256.281C258.719 256.074 258.407 256.074 258.303 256.281L249.472 272.264C249.368 272.471 249.472 272.712 249.68 272.747L252.728 273.23C252.728 273.23 252.97 273.196 253.039 273.058Z" fill="white"/>
<path d="M404.546 81.1998C407.454 77.0575 410.571 72.5355 412.441 65.8042C413.445 62.2142 414.38 58.6933 413.584 54.1713C413.065 51.1336 411.956 48.6482 410.779 46.7151C409.948 45.3343 407.87 45.645 407.489 47.1984C406.693 50.4087 405.515 54.1022 403.714 58.1065C399.767 66.9434 394.884 72.7426 393.014 74.8138C389.828 78.4038 384.98 83.7197 376.911 87.5859C374.14 88.8976 371.716 89.7261 370.019 90.2094C378.746 79.5429 383.975 69.6359 387.127 62.663C390.728 54.62 393.36 46.3354 393.222 36.9116C393.118 30.0078 391.559 26.3833 389.274 23.7943C389.274 23.7943 389.239 23.7253 389.204 23.6908C386.988 21.2054 382.867 23.0694 383.248 26.3833C383.49 28.4199 383.56 30.6982 383.352 33.1145C383.006 36.8771 382.071 40.1219 379.231 46.5425C376.911 51.824 373.482 58.9694 368.53 67.185L359.423 78.2657L357.276 80.682C357.068 80.9237 356.687 80.682 356.825 80.3714C359.804 72.7771 362.47 64.9758 364.825 56.9673L369.846 42.849C370.643 38.7757 372.028 31.2505 372.686 23.6217C372.824 21.9303 372.998 19.514 371.889 16.7869C371.335 15.4407 370.608 14.3361 369.846 13.4386C368.842 12.2649 366.903 12.8172 366.73 14.3706C366.73 14.6122 366.66 14.8193 366.66 15.061C366.349 17.5809 365.898 19.652 365.517 21.3435C365.344 22.1374 365.171 22.7933 365.067 23.242C365.067 23.173 365.067 23.173 365.067 23.242C361.085 41.1575 353.293 60.4192 340.411 74.4686C340.272 74.6412 339.995 74.4686 340.03 74.2615C341.727 65.8042 354.436 -0.0239277 336.567 3.39348C336.29 3.46251 336.082 3.70415 336.082 4.01482C337.744 31.1124 336.082 62.2142 324.169 86.93C324.1 87.0681 323.892 87.0336 323.892 86.861C323.892 81.6486 324.516 -0.679794 307.443 11.9197C307.166 12.1268 307.062 12.3685 307.131 12.7137C310.04 31.2505 311.841 49.9944 311.287 68.8419C310.975 79.3358 309.555 91.2794 303.807 100.185C303.668 100.427 303.287 100.289 303.322 100.013C304.188 91.7627 308.101 41.0194 290.994 44.4714C290.509 44.5749 290.301 44.8511 290.405 45.3689C292.379 57.6577 302.733 128.18 282.163 128.319C281.921 128.319 281.678 128.146 281.644 127.87C280.466 121.277 277.176 114.891 269.419 119.896C269.246 119.999 269.177 120.241 269.246 120.414C270.735 124.142 274.925 135.222 269.904 137.777C269.419 138.018 268.207 138.191 266.268 138.26C261.904 138.433 254.32 140.469 258.58 147.097C261.246 151.274 266.579 161.457 263.636 166.669C262.147 169.327 258.684 170.121 255.844 169.845C255.533 169.845 255.325 170.19 255.532 170.467C268.83 187.899 269.765 210.026 255.983 227.665C255.636 228.114 255.429 228.977 255.532 229.391C257.16 236.536 261.558 239.022 268.657 236.847C268.865 236.778 268.969 236.847 268.934 237.089C268.034 244.027 271.393 246.961 277.8 243.889C278.042 243.785 278.146 243.854 278.181 244.131C278.388 246.754 279.6 251.069 282.094 252.312C285.73 254.141 289.089 250.24 291.652 247.962C291.79 247.824 291.963 247.824 292.067 247.962C297.92 254.728 303.668 253.623 306.196 244.89C306.231 244.752 306.404 244.717 306.473 244.855C312.984 255.28 320.949 254.797 325.866 243.371C325.935 243.164 326.074 243.13 326.247 243.268C338.818 252.105 348.653 228.321 351.977 220.416C352.046 220.243 352.185 220.071 352.323 219.967C357.033 216.481 361.223 212.407 364.86 207.816C367.526 204.951 370.435 201.327 373.24 196.839C374.452 194.906 378.192 188.693 381.101 179.511C383.352 172.4 384.114 166.359 385.638 154.312C386.711 145.785 386.434 145.129 387.438 140.228C388.927 133.048 390.901 127.663 392.702 122.865C395.092 116.409 396.304 113.199 398.451 110.231C402.295 104.915 404.892 104.776 407.662 100.876C409.567 98.1833 411.333 93.9719 411.091 87.2062C411.021 85.2041 408.667 84.203 407.143 85.5147C405.931 86.5503 404.961 87.4823 404.234 88.2417C401.81 90.6581 400.528 92.3495 398 93.1435C396.269 93.6958 394.711 93.5922 393.741 93.4541C398.797 88.8631 402.295 84.4446 404.58 81.1653L404.546 81.1998ZM358.245 183.549C358.072 183.998 357.795 184.481 357.483 184.965C351.25 194.112 345.432 200.119 339.718 203.26C338.16 204.123 336.047 204.641 334.073 204.641C331.234 204.641 328.948 203.605 327.667 201.741C324.793 197.564 328.013 190.073 330.333 184.619C331.061 182.963 331.649 181.513 331.996 180.477C332.342 179.407 332.307 178.579 331.961 178.026C331.476 177.267 330.229 176.749 328.221 176.473L327.424 176.369L327.009 175.541C327.009 175.541 327.009 175.437 326.974 175.403C326.905 175.506 326.87 175.61 326.801 175.713C319.044 189.763 311.702 203.018 294.595 204.157C294.11 204.157 293.626 204.192 293.106 204.192C286.769 204.192 279.67 201.672 278.7 194.665C278.284 191.696 279.219 189.935 280.051 188.934C281.055 187.761 282.544 187.105 284.137 187.105C285.868 187.105 287.461 187.899 288.293 189.21C289.124 190.522 289.158 192.179 288.362 193.905C288.05 194.596 287.392 195.424 286.145 195.838C286.215 197.184 286.63 198.255 287.392 199.048C288.708 200.395 290.786 200.705 292.31 200.705C301.66 200.705 307.824 191.523 313.122 181.616L313.295 181.306C318.975 170.639 325.97 157.522 337.121 151.516C336.428 151.239 335.701 151.032 334.939 150.86C332.099 150.273 329.191 149.962 326.282 149.962C313.953 149.962 303.322 155.175 297.089 164.288C294.768 167.671 292.968 173.642 293.937 177.819C294.387 179.683 295.357 181.064 296.846 181.892C298.197 182.652 299.547 183.032 300.898 183.032C307.097 183.032 311.979 175.334 313.088 169.811C313.33 168.568 313.399 167.084 313.434 165.53C313.434 164.564 313.503 163.563 313.572 162.596C313.642 161.837 314.265 161.25 315.027 161.215C315.858 161.215 316.516 161.768 316.62 162.527C317.97 172.607 313.469 181.823 305.4 185.482C303.564 186.311 301.383 186.76 299.097 186.76C294.768 186.76 289.297 185.034 286.977 180.132C282.475 170.639 290.059 160.629 296.223 156.21C305.019 149.893 315.858 146.441 326.663 146.441C332.273 146.441 337.744 147.339 342.973 149.134C345.778 148.029 348.687 147.304 351.665 146.993L352.323 146.924L352.912 147.442C353.189 147.753 353.328 148.133 353.293 148.581C353.293 149.41 352.774 150.066 352.012 150.169C350.315 150.445 348.653 150.894 347.06 151.516C350.211 154.07 351.977 157.211 352.185 160.767C352.393 164.288 351.354 167.394 349.103 169.949C345.536 173.988 340.03 175.506 336.463 176.093C341.623 180.201 339.476 186.276 337.536 191.696C336.428 194.803 335.285 198.013 335.597 200.602C335.701 200.602 335.805 200.636 335.943 200.636C337.675 200.636 340.896 198.565 342.523 197.15C347.683 192.697 351.943 187.001 355.544 182.065C355.856 181.651 356.341 181.375 356.825 181.375H357.102L357.518 181.513L357.968 181.72L358.384 182.272L358.626 182.824L358.349 183.446L358.245 183.549Z" fill="white"/>
<path d="M340.341 168.568C343.32 164.702 344.566 158.903 341.623 154.795C339.06 156.866 336.809 159.282 334.939 162.009C332.411 165.703 330.126 169.673 327.979 173.573C328.221 173.435 328.429 173.401 328.671 173.401C329.156 173.401 329.502 173.435 329.883 173.435C332.965 173.435 337.294 172.607 340.376 168.568H340.341Z" fill="white"/>
<path d="M267.03 278.408L264.675 277.165C264.467 277.062 264.329 277.096 264.225 277.304L258.268 288.004C258.268 288.004 258.199 288.281 258.268 288.384C258.338 288.488 258.407 288.557 258.476 288.626C258.753 288.833 258.892 288.936 258.926 288.971C259.342 289.454 259.792 289.972 260.277 290.455C260.485 290.662 260.658 290.628 260.796 290.386L267.168 278.788C267.168 278.788 267.237 278.477 267.064 278.408H267.03Z" fill="white"/>
<path d="M252.347 286.624C251.031 288.384 250.338 290.076 250.719 290.421C251.134 290.732 252.52 289.558 253.836 287.797C255.152 286.037 255.844 284.345 255.463 284C255.048 283.69 253.662 284.863 252.347 286.624Z" fill="white"/>
<path d="M259.273 278.098L261.697 273.472C261.697 273.472 261.697 273.334 261.697 273.299L260.346 270.745C260.346 270.745 260.346 270.641 260.346 270.607L261.316 267.12C261.316 267.12 261.316 266.913 261.212 266.879C261.108 266.844 261.004 266.879 260.969 266.948L256.571 274.818C256.571 274.818 256.571 274.991 256.571 275.025L258.961 278.132C258.961 278.132 259.203 278.236 259.273 278.132V278.098Z" fill="white"/>
<path d="M176.057 282.343C175.987 282.896 176.057 282.93 176.334 282.447L199.397 241.265C199.501 241.058 199.293 240.851 199.086 240.955C197.7 241.783 193.441 243.509 192.748 244.717C188.177 252.829 183.641 260.941 179.139 269.088C177.199 272.609 176.541 278.926 176.022 282.343H176.057Z" fill="white"/>
<path d="M158.465 282.412H156.975C156.768 282.412 156.629 282.205 156.664 281.998C157.633 278.305 159.503 275.232 162.308 272.782C162.447 272.644 162.62 272.609 162.793 272.609H164.109C164.317 272.609 164.49 272.505 164.594 272.333L179.935 244.994C180.074 244.752 180.004 244.579 179.762 244.441L177.407 243.268C177.165 243.164 176.992 243.199 176.853 243.44C168.854 257.8 160.819 272.16 152.785 286.52C150.881 289.972 150.465 293.01 150.604 296.738C150.604 297.083 150.707 297.118 150.881 296.807L158.672 282.792C158.811 282.516 158.742 282.378 158.43 282.378L158.465 282.412Z" fill="white"/>
<path d="M154.274 298.878L153.028 301.053C153.028 301.053 153.028 301.295 153.131 301.329L153.963 301.64C153.963 301.64 154.17 301.64 154.205 301.502L154.621 299.016C154.621 298.809 154.378 298.706 154.274 298.878Z" fill="white"/>
<path d="M189.978 220.899C189.978 220.657 189.632 220.588 189.528 220.795L182.117 234.154C182.013 234.362 181.978 234.569 182.048 234.776C182.325 235.811 182.809 236.709 183.571 237.468C183.779 237.675 184.091 237.606 184.229 237.365C186.272 233.671 188.35 229.978 190.393 226.353C191.259 224.834 190.116 222.59 189.978 220.899Z" fill="white"/>
<path d="M173.91 240.368L172.455 237.883C172.317 237.641 171.97 237.641 171.832 237.883C166.741 247.03 161.651 256.143 156.525 265.256C155.105 267.776 157.322 268.674 156.525 270.607C155.521 273.127 153.928 275.302 151.781 277.166C151.642 277.304 151.469 277.373 151.296 277.407C144.751 278.374 130.795 283.241 135.055 293.01C135.159 293.251 135.505 293.251 135.609 293.01C137.409 289.42 140.111 286.796 143.712 285.174C143.955 285.07 144.162 285.347 144.024 285.554C141.634 289.523 138.656 294.184 140.076 299.085C140.215 299.603 140.942 299.707 141.184 299.223L173.875 240.955C173.979 240.748 173.979 240.575 173.875 240.403L173.91 240.368Z" fill="white"/>
<path d="M133.427 277.096C133.427 273.644 130.691 270.848 127.332 270.848C123.973 270.848 121.237 273.644 121.237 277.096C121.237 280.548 123.973 283.344 127.332 283.344C130.691 283.344 133.427 280.548 133.427 277.096Z" fill="white"/>
<path d="M123.107 291.664C121.48 291.664 120.129 293.044 120.129 294.701C120.129 296.358 121.445 297.739 123.107 297.739C124.77 297.739 126.085 296.358 126.085 294.701C126.085 293.044 124.77 291.664 123.107 291.664Z" fill="white"/>
<path d="M163.036 284C162.828 283.862 162.551 283.931 162.447 284.138L160.819 287.073C160.715 287.245 160.819 287.487 161.027 287.521C163.036 287.832 164.802 288.729 166.256 290.179C166.395 290.317 166.672 290.179 166.637 289.972C166.222 287.452 165.044 285.45 163.07 284H163.036Z" fill="white"/>
<path d="M132.665 309.993C134.52 309.993 136.024 308.448 136.024 306.541C136.024 304.635 134.52 303.089 132.665 303.089C130.81 303.089 129.306 304.635 129.306 306.541C129.306 308.448 130.81 309.993 132.665 309.993Z" fill="white"/>
<path d="M158.568 316.725C156.283 316.725 154.413 318.623 154.413 321.005C154.413 323.387 156.283 325.285 158.568 325.285C160.854 325.285 162.724 323.387 162.724 321.005C162.724 318.623 160.854 316.725 158.568 316.725Z" fill="white"/>
<path d="M187.242 307.473C182.706 307.473 179 311.27 179 315.931C179 320.591 182.671 324.388 187.242 324.388C191.813 324.388 195.484 320.591 195.484 315.931C195.484 311.27 191.813 307.473 187.242 307.473Z" fill="white"/>
<path d="M234.443 242.75L229.11 244.786C229.11 244.786 229.041 244.855 229.006 244.89L199.536 297.808C199.536 297.808 199.536 297.981 199.536 298.05L201.995 300.88C201.995 300.88 202.272 300.984 202.341 300.88L234.685 243.095C234.685 243.095 234.616 242.715 234.443 242.784V242.75Z" fill="white"/>
<path d="M223.846 245.615L220.037 245.822C219.76 245.822 219.517 245.995 219.344 246.236L189.805 298.74C189.597 299.12 189.805 299.603 190.22 299.706C193.753 300.431 195.553 295.184 196.35 292.457C196.454 292.112 196.627 292.078 196.835 292.354L197.319 292.941C197.493 293.148 197.631 293.113 197.77 292.906L224.054 245.926C224.054 245.926 224.054 245.58 223.846 245.58V245.615Z" fill="white"/>
<path d="M187.831 215.307C183.225 217.965 180.108 222.729 180.247 228.355C180.247 229.115 180.455 229.184 180.836 228.493L188.108 215.583C188.212 215.411 188.004 215.204 187.831 215.307Z" fill="white"/>
<path d="M185.718 290.732L186.965 294.874C187.034 295.115 187.381 295.15 187.485 294.943L215.085 245.926C215.189 245.753 215.085 245.511 214.877 245.477L211.414 244.855C211.414 244.855 211.171 244.89 211.102 244.994L185.718 290.49C185.718 290.49 185.684 290.662 185.718 290.732Z" fill="white"/>
<path d="M125.635 249.55C125.635 249.55 125.912 249.378 126.051 249.55C128.648 251.863 132.076 255.798 135.747 253.934C138.275 252.657 139.522 248.273 139.73 245.649C139.73 245.373 139.868 245.304 140.111 245.408C146.621 248.515 150.015 245.546 149.114 238.504C149.114 238.262 149.184 238.193 149.391 238.262C156.595 240.472 161.027 237.986 162.689 230.737C162.793 230.323 162.586 229.425 162.239 228.977C148.318 211.13 149.218 188.693 162.689 171.053C162.897 170.777 162.689 170.398 162.378 170.432C159.503 170.708 156.006 169.88 154.517 167.222C151.539 161.94 156.941 151.619 159.642 147.408C163.971 140.676 156.283 138.64 151.85 138.467C149.911 138.398 148.664 138.226 148.179 137.984C143.054 135.43 147.348 124.176 148.837 120.414C148.907 120.207 148.837 119.999 148.664 119.896C140.803 114.856 137.479 121.311 136.267 127.973C136.232 128.25 135.99 128.422 135.747 128.422C114.9 128.284 125.393 56.8638 127.367 44.4023C127.436 43.8845 127.263 43.6084 126.778 43.5048C109.463 40.0184 113.411 91.4175 114.311 99.7712C114.311 100.047 113.965 100.22 113.826 99.9438C108.009 90.8997 106.554 78.818 106.242 68.1861C105.688 49.1314 107.524 30.1459 110.467 11.3674C110.537 11.0567 110.398 10.7806 110.156 10.5735C92.8752 -2.19865 93.464 81.1998 93.4986 86.4813C93.4986 86.6193 93.2908 86.6884 93.2215 86.5503C81.1703 61.5239 79.4734 30.0078 81.1703 2.56501C81.1703 2.25433 80.9971 2.0127 80.6855 1.94366C62.6086 -1.50826 75.491 65.1484 77.1878 73.7437C77.2225 73.9853 76.9454 74.1234 76.8069 73.9508C63.7514 59.7289 55.8557 40.2255 51.8387 22.1029C51.8387 22.0339 51.8387 22.0339 51.8387 22.1029C51.7348 21.6196 51.5616 20.9638 51.3885 20.1698C51.0075 18.4439 50.5573 16.3727 50.211 13.7838C50.211 13.5766 50.1418 13.335 50.1418 13.0934C49.9686 11.54 47.9947 10.9532 46.9904 12.1614C46.194 13.0934 45.4667 14.2325 44.9126 15.5788C43.7699 18.3403 43.943 20.7912 44.1162 22.4826C44.7741 30.2149 46.1593 37.8437 46.9904 41.9515L52.0811 56.2424C54.4705 64.3199 57.1717 72.2248 60.1845 79.9226C60.2884 80.2333 59.9421 80.4749 59.7343 80.2333L57.5526 77.7824L48.341 66.5637C43.3543 58.2445 39.8567 50.9955 37.5018 45.645C34.6622 39.1209 33.6925 35.8415 33.3462 32.0444C33.1384 29.559 33.2077 27.2808 33.4501 25.2096C33.831 21.8613 29.6754 19.9972 27.4245 22.4826C27.4245 22.4826 27.3552 22.5516 27.3552 22.5862C25.035 25.2096 23.4766 28.8687 23.3728 35.8761C23.1996 45.4034 25.8661 53.7915 29.5369 61.9381C32.7229 69.0145 38.0213 79.0251 46.8519 89.8296C45.1204 89.3464 42.6617 88.5179 39.8567 87.1716C31.6493 83.271 26.7665 77.8514 23.5459 74.2269C21.6413 72.0867 16.6892 66.253 12.7067 57.278C10.9059 53.2392 9.6939 49.4766 8.89741 46.2318C8.51647 44.644 6.40404 44.3678 5.53829 45.7486C4.36087 47.7162 3.21808 50.2361 2.69863 53.3083C1.90214 57.8993 2.87178 61.4548 3.87605 65.1139C5.7807 71.9487 8.93203 76.5397 11.8756 80.7165C14.1958 84.0304 17.7627 88.5179 22.8533 93.178C21.849 93.3161 20.2561 93.3851 18.5246 92.8328C15.9273 92.0043 14.646 90.3129 12.1873 87.862C11.4254 87.1026 10.4211 86.1706 9.20907 85.1005C7.68535 83.7542 5.29588 84.7898 5.22662 86.8264C4.94958 93.6958 6.75034 97.9417 8.68962 100.669C11.4947 104.604 14.1265 104.742 18.0051 110.127C20.1868 113.13 21.3988 116.375 23.8229 122.899C25.6583 127.801 27.6669 133.255 29.156 140.504C30.1949 145.475 29.8832 146.165 30.9914 154.795C32.5497 167.015 33.3116 173.125 35.5972 180.339C38.5407 189.625 42.35 195.942 43.5621 197.909C46.3671 202.431 49.3453 206.125 52.0464 209.025C55.7172 213.685 59.9767 217.792 64.721 221.348C64.8595 221.451 64.9981 221.624 65.0673 221.797C68.4611 229.84 78.3999 253.9 91.1437 244.959C91.3169 244.821 91.4554 244.855 91.5247 245.063C96.5114 256.661 104.546 257.11 111.16 246.581C111.229 246.478 111.402 246.478 111.437 246.616C114 255.487 119.817 256.557 125.739 249.723L125.635 249.55ZM115.627 202.88H115.281C111.922 202.88 110.225 201.258 109.428 199.877C106.208 194.457 110.329 183.584 112.303 179.442H104.892C97.8966 187.692 87.473 199.946 75.5602 202.155C74.4174 202.362 73.2054 202.466 71.9933 202.466C65.9677 202.466 61.4312 199.98 59.8382 195.804C58.7647 192.939 59.0763 188.762 61.8467 186.656C62.9203 185.828 64.0284 185.413 65.1366 185.413C67.907 185.413 69.7077 187.968 69.777 190.315C69.8463 192.352 68.5996 194.457 65.7253 194.906C66.8681 197.564 68.8074 198.841 71.8202 198.91H72.2011C80.0621 198.91 89.343 192.524 99.8359 179.925C110.883 166.669 124.146 151.964 141.738 145.647L141.946 145.578H142.327C142.985 145.578 143.608 145.958 143.92 146.579C144.197 147.201 144.093 147.925 143.643 148.443C136.994 156.003 130.934 164.219 125.566 172.917C121.826 178.958 117.497 186.967 116.839 195.562C116.666 197.668 117.116 198.358 117.289 198.565C117.393 198.669 117.566 198.807 117.982 198.807C119.402 198.807 121.791 197.357 123.523 195.907C128.406 191.834 133.081 186.794 137.409 180.926C137.756 180.443 138.241 180.201 138.795 180.201C139.141 180.201 139.453 180.305 139.73 180.477L140.18 180.753L140.422 181.444C140.526 181.858 140.422 182.272 140.18 182.652C137.063 187.312 126.085 202.569 115.593 202.88H115.627Z" fill="white"/>
<path d="M134.639 151.17C134.639 151.17 134.431 151.032 134.327 151.101C123.073 157.729 113.861 166.773 105.481 176.818C105.238 177.094 105.307 177.267 105.688 177.267H114.38C114.623 177.267 114.831 177.163 114.935 176.922C120.268 167.429 126.813 158.972 134.57 151.481C134.639 151.412 134.674 151.274 134.57 151.17H134.639Z" fill="white"/>
<path d="M187.762 245.719C187.9 245.477 187.831 245.339 187.554 245.339H184.402C184.229 245.339 184.056 245.442 183.987 245.615L169.789 271.09C169.615 271.366 169.685 271.47 169.996 271.366C172.905 270.4 174.706 269.054 176.334 266.154C180.178 259.354 183.987 252.553 187.796 245.719H187.762Z" fill="white"/>
<path d="M207.085 243.544L203.865 241.852C203.691 241.749 203.484 241.852 203.38 241.99C194.791 257.317 186.238 272.678 177.684 288.039C175.849 291.353 174.36 292.975 176.715 296.048C177.13 296.565 177.892 296.496 178.204 295.944L207.258 244.165C207.397 243.958 207.293 243.647 207.085 243.544Z" fill="white"/>
<path d="M209.994 296.358C209.994 296.358 209.925 296.151 209.994 296.013C210.375 295.288 210.964 294.184 211.76 292.768C221.941 274.611 232.157 256.454 242.408 238.297C243.308 236.709 244.416 235.363 245.628 233.913C246.875 232.429 248.156 230.875 249.161 229.046C249.334 228.77 249.264 228.459 248.987 228.252C248.71 228.045 248.607 228.01 248.468 228.01H248.329L248.052 228.217C247.602 228.735 247.256 229.356 246.91 229.943C246.737 230.254 246.563 230.565 246.39 230.806C239.949 240.057 230.911 244.752 219.552 244.752C219.206 244.752 218.859 244.752 218.513 244.752C212.072 244.579 206.219 242.681 201.129 239.056C200.99 238.953 200.852 238.918 200.679 238.918C200.505 238.918 200.402 238.953 200.263 239.056C194.861 242.75 190.463 244.303 185.615 244.303C184.922 244.303 184.229 244.303 183.537 244.2C177.338 243.613 172.905 239.574 172.178 233.844C171.555 228.804 173.286 224.558 177.788 220.105C180.974 216.964 184.61 215.307 188.454 213.547L190.047 212.822C190.324 212.684 190.532 212.442 190.567 212.131C192.263 201.189 199.951 190.143 211.31 190.143C214.184 190.143 217.509 191.454 218.028 194.975C219.24 203.191 206.773 207.506 199.293 210.095L198.358 210.405C198.358 210.405 198.601 210.026 198.67 209.991L198.774 210.06L198.947 210.129C202.237 209.025 205.042 207.333 207.466 205.055C207.674 204.882 207.778 204.606 207.743 204.295C207.639 203.363 210.202 198.669 210.894 198.427C211.171 198.358 211.379 198.151 211.449 197.875C212.106 195.735 211.933 193.836 210.998 192.559C210.306 191.627 209.232 191.109 208.02 191.109C206.462 191.109 204.903 191.903 203.587 193.387C199.086 198.427 196.973 204.813 197.354 212.338C197.666 218.932 200.021 228.079 205.631 233.913C205.769 234.051 205.908 234.12 206.081 234.12C206.254 234.12 206.427 234.051 206.531 233.913C209.475 230.979 212.245 227.838 214.912 224.765C217.717 221.555 220.625 218.207 223.742 215.169C225.335 213.65 228.244 211.821 231.257 211.821C232.746 211.821 234.027 212.269 235.066 213.201C236.001 214.03 236.486 215.445 236.348 216.895C236.209 218.31 235.516 219.449 234.477 220.071C233.75 220.485 232.988 220.727 232.261 220.727C231.257 220.727 230.322 220.312 229.664 219.587C228.937 218.759 228.59 217.62 228.729 216.308V216.17L228.625 215.894L228.521 215.79H228.175L227.932 216.032C227.067 217.102 227.067 218.241 227.932 219.277C229.006 220.658 228.764 221.037 228.14 222.073C228.002 222.315 227.829 222.591 227.655 222.901C224.366 228.839 221.041 234.776 217.682 240.713L214.669 239.54L227.725 216.101C227.725 216.101 227.863 215.928 227.967 215.859C228.625 215.48 229.075 214.962 229.352 214.272C229.456 214.03 229.421 213.857 229.352 213.685L229.248 213.547L228.867 213.478C225.093 213.823 221.63 217.344 219.032 220.347C215.085 224.938 211.033 229.495 206.947 233.913C206.566 234.327 206.566 234.81 206.947 235.225C212.003 240.334 218.167 243.061 225.301 243.233H225.82C235.032 243.233 243.031 237.054 250.269 224.351C253.593 218.517 256.814 212.753 259.931 207.126C259.134 212.2 257.056 216.619 253.801 220.209C250.477 223.868 249.126 229.425 248.572 233.43C248.399 234.707 247.741 235.881 247.187 236.847C235.482 257.835 223.742 278.822 211.968 299.845L211.899 299.983L209.959 296.462L209.994 296.358ZM189.285 213.409C181.632 216.688 177.684 224.696 179.935 232.429C181.667 238.4 185.892 241.783 191.536 241.783C191.986 241.783 192.471 241.783 192.956 241.714C195.519 241.473 197.874 240.575 199.917 239.056C200.055 238.953 200.159 238.78 200.194 238.573C200.194 238.366 200.124 238.193 199.986 238.055C193.441 232.049 189.943 223.35 190.393 214.168C190.393 213.961 190.324 213.719 190.186 213.581C190.047 213.443 189.839 213.339 189.632 213.339H189.562L189.32 213.409H189.285Z" fill="white"/>
</g>
<defs>
<filter id="filter0_d_10_2781" x="0.98509" y="0.394209" width="417.158" height="329.151" filterUnits="userSpaceOnUse" color-interpolation-filters="sRGB">
<feFlood flood-opacity="0" result="BackgroundImageFix"/>
<feColorMatrix in="SourceAlpha" type="matrix" values="0 0 0 0 0 0 0 0 0 0 0 0 0 0 0 0 0 0 127 0" result="hardAlpha"/>
<feOffset dx="1.42" dy="1.42"/>
<feGaussianBlur stdDeviation="1.42"/>
<feColorMatrix type="matrix" values="0 0 0 0 0 0 0 0 0 0 0 0 0 0 0 0 0 0 0.75 0"/>
<feBlend mode="normal" in2="BackgroundImageFix" result="effect1_dropShadow_10_2781"/>
<feBlend mode="normal" in="SourceGraphic" in2="effect1_dropShadow_10_2781" result="shape"/>
</filter>
</defs>
</svg>
