<svg width="203" height="45" viewBox="0 0 203 45" fill="none" xmlns="http://www.w3.org/2000/svg">
<g clip-path="url(#clip0_41_593)">
<g filter="url(#filter0_d_41_593)">
<path d="M21.255 26.922L21.3509 27.5061C21.3509 27.5364 21.3946 27.5451 21.4076 27.5191L27.0731 17.459C27.0731 17.459 27.0775 17.4374 27.0731 17.4287L26.8463 17.0263C26.8463 17.0263 26.8027 17.0047 26.7896 17.0263L21.255 26.9047C21.255 26.9047 21.2506 26.9177 21.255 26.9263V26.922Z" fill="white"/>
<path d="M27.6706 14.9236C27.938 14.9236 28.1548 14.7027 28.1548 14.4303C28.1548 14.1579 27.938 13.937 27.6706 13.937C27.4033 13.937 27.1865 14.1579 27.1865 14.4303C27.1865 14.7027 27.4033 14.9236 27.6706 14.9236Z" fill="white"/>
<path d="M28.652 12.323C29.2189 12.323 29.6769 11.8513 29.6769 11.2715C29.6769 10.6917 29.2189 10.2201 28.652 10.2201C28.085 10.2201 27.627 10.6917 27.627 11.2715C27.627 11.8513 28.085 12.323 28.652 12.323Z" fill="white"/>
<path d="M30.6364 5.69419C30.9447 5.69419 31.1947 5.43847 31.1947 5.12303C31.1947 4.80759 30.9447 4.55188 30.6364 4.55188C30.3281 4.55188 30.0781 4.80759 30.0781 5.12303C30.0781 5.43847 30.3281 5.69419 30.6364 5.69419Z" fill="white"/>
<path d="M31.7922 12.9721C32.2109 12.9721 32.5511 12.6216 32.5511 12.1933C32.5511 11.7649 32.2109 11.4144 31.7922 11.4144C31.3735 11.4144 31.0333 11.7649 31.0333 12.1933C31.0333 12.6216 31.3735 12.9721 31.7922 12.9721Z" fill="white"/>
<path d="M32.4333 4.3874C32.852 4.3874 33.1922 4.03692 33.1922 3.60856C33.1922 3.18019 32.852 2.82971 32.4333 2.82971C32.0146 2.82971 31.6744 3.18019 31.6744 3.60856C31.6744 4.03692 32.0146 4.3874 32.4333 4.3874Z" fill="white"/>
<path d="M31.9143 7.07883C32.224 7.07883 32.4726 6.82354 32.4726 6.50768C32.4726 6.19181 32.224 5.93652 31.9143 5.93652C31.6047 5.93652 31.3561 6.19181 31.3561 6.50768C31.3561 6.82354 31.6047 7.07883 31.9143 7.07883Z" fill="white"/>
<path d="M25.9697 12.4787C26.1672 12.4787 26.3273 12.3141 26.3273 12.111C26.3273 11.9078 26.1672 11.7432 25.9697 11.7432C25.7722 11.7432 25.6121 11.9078 25.6121 12.111C25.6121 12.3141 25.7722 12.4787 25.9697 12.4787Z" fill="white"/>
<path d="M10.709 32.8369C10.4299 32.8369 10.2031 33.0706 10.2031 33.3561C10.2031 33.6417 10.4299 33.8754 10.709 33.8754C10.9881 33.8754 11.2149 33.6417 11.2149 33.3561C11.2149 33.0706 10.9881 32.8369 10.709 32.8369Z" fill="white"/>
<path d="M26.1441 16.2865C24.7267 18.8264 23.3179 21.3663 21.9048 23.9062C21.5472 24.5509 21.3771 25.0832 21.3029 25.7668C21.2986 25.8274 21.3073 25.8317 21.3378 25.7798L26.5018 16.6067C26.5192 16.5764 26.5148 16.5461 26.4887 16.5202L26.2488 16.2735C26.2183 16.2433 26.1659 16.2476 26.1441 16.2865Z" fill="white"/>
<path d="M20.6836 17.6191C21.3117 17.2989 21.9833 17.6667 22.4762 18.0302C22.5023 18.0475 22.5241 18.0432 22.5372 18.0172L23.8936 15.6288C23.9067 15.6028 23.8849 15.5725 23.8587 15.5768C23.2874 15.7066 22.9385 16.0658 22.8076 16.6499C22.8033 16.6759 22.7858 16.6889 22.7553 16.6845C22.0575 16.598 20.5179 16.5288 20.6444 17.5932C20.6444 17.6191 20.6618 17.6235 20.6836 17.6148V17.6191Z" fill="white"/>
<path d="M15.0094 34.8879C15.4333 34.8879 15.777 34.5372 15.777 34.1047C15.777 33.6722 15.4333 33.3215 15.0094 33.3215C14.5854 33.3215 14.2418 33.6722 14.2418 34.1047C14.2418 34.5372 14.5854 34.8879 15.0094 34.8879Z" fill="white"/>
<path d="M23.0214 18.2466C23.2525 18.2942 23.427 18.2466 23.5578 18.0216C24.0027 17.2471 24.4432 16.4682 24.8793 15.6894C24.9011 15.6548 24.888 15.6332 24.8488 15.6332H24.7746C24.7485 15.6332 24.7267 15.6288 24.7005 15.6202C24.5304 15.5596 24.4432 15.5942 24.356 15.7586C23.9024 16.5678 23.4488 17.3812 22.9952 18.1947C22.9821 18.2163 22.9952 18.2423 23.0214 18.2509V18.2466Z" fill="white"/>
<path d="M25.7821 15.9836C25.7952 15.962 25.7821 15.9317 25.7647 15.923L25.4201 15.7629C25.394 15.7499 25.3722 15.7586 25.3591 15.7846C24.8139 16.7581 24.2687 17.736 23.7192 18.7096C23.6625 18.8091 23.6319 18.9129 23.6232 19.0297C23.5971 19.3499 23.5578 19.6745 23.5098 19.9947C23.5098 20.012 23.5273 20.0206 23.536 20.0033L25.7821 15.9836Z" fill="white"/>
<path d="M33.829 6.42539C34.1386 6.42539 34.3872 6.1701 34.3872 5.85423C34.3872 5.53837 34.1386 5.28308 33.829 5.28308C33.5193 5.28308 33.2707 5.53837 33.2707 5.85423C33.2707 6.1701 33.5193 6.42539 33.829 6.42539Z" fill="white"/>
<path d="M25.7691 14.6899C26.166 14.6899 26.4887 14.3611 26.4887 13.9543C26.4887 13.5476 26.166 13.2188 25.7691 13.2188C25.3722 13.2188 25.0494 13.5476 25.0494 13.9543C25.0494 14.3611 25.3722 14.6899 25.7691 14.6899Z" fill="white"/>
<path d="M29.9996 9.53219C30.3529 9.53219 30.6364 9.23796 30.6364 8.87883C30.6364 8.51969 30.3529 8.22546 29.9996 8.22546C29.6463 8.22546 29.3629 8.51969 29.3629 8.87883C29.3629 9.23796 29.6463 9.53219 29.9996 9.53219Z" fill="white"/>
<path d="M27.2737 30.2061C27.2999 30.2364 27.3479 30.2321 27.3697 30.1975L32.3984 21.2537C32.4202 21.2148 32.4246 21.1715 32.4071 21.1283L32.2065 20.5614C32.2065 20.5614 32.1891 20.5485 32.1847 20.5614C31.1903 22.3268 30.209 24.0792 29.232 25.8186C29.1361 25.9917 29.0445 26.2297 28.9224 26.4244C28.2507 27.4845 27.6619 28.6268 27.0382 29.7215C27.0251 29.7432 27.0251 29.7691 27.0338 29.7951C27.0905 29.9422 27.1734 30.0807 27.2737 30.2061Z" fill="white"/>
<path d="M27.8277 27.251C27.6401 27.3462 27.3043 27.4067 27.1953 27.5971C27.0077 27.9173 26.8245 28.2375 26.6501 28.5663C26.5759 28.7048 26.7155 29.038 26.7635 29.1721C26.7678 29.1894 26.7896 29.1894 26.7984 29.1721L27.8538 27.2813C27.8538 27.2813 27.8451 27.238 27.8233 27.251H27.8277Z" fill="white"/>
<path d="M28.7043 16.2086C28.9716 16.2086 29.1884 15.9858 29.1884 15.711C29.1884 15.4362 28.9716 15.2134 28.7043 15.2134C28.4369 15.2134 28.2202 15.4362 28.2202 15.711C28.2202 15.9858 28.4369 16.2086 28.7043 16.2086Z" fill="white"/>
<path d="M30.8763 13.5C30.8763 13.1625 30.6103 12.8899 30.2788 12.8899C29.9473 12.8899 29.6813 13.1625 29.6813 13.5C29.6813 13.8375 29.9473 14.1101 30.2788 14.1101C30.6103 14.1101 30.8763 13.8375 30.8763 13.5Z" fill="white"/>
<path d="M34.8844 17.6971C34.9193 17.723 34.9673 17.6971 34.9673 17.6538C34.9542 16.7798 33.9947 16.6629 33.3492 16.7105C33.3187 16.7105 33.2881 16.7322 33.2751 16.7581L32.4333 18.2596C32.4159 18.2942 32.442 18.3375 32.4813 18.3331C33.1922 18.2639 34.1561 17.1259 34.8844 17.6971Z" fill="white"/>
<path d="M33.2009 22.9197L30.5579 27.6231C30.5317 27.6663 30.5448 27.688 30.5971 27.6923L30.8152 27.701C30.837 27.701 30.8632 27.7053 30.8806 27.7139C30.994 27.7615 31.0769 27.7356 31.1336 27.6361C31.9056 26.2644 32.6775 24.8928 33.4495 23.5255C33.4713 23.4909 33.4888 23.4519 33.5106 23.413C33.5193 23.3913 33.5193 23.3697 33.5106 23.3481L33.3012 22.9284C33.2707 22.8678 33.2402 22.8678 33.2053 22.9284L33.2009 22.9197Z" fill="white"/>
<path d="M33.8028 24.0143C33.7941 23.9884 33.7592 23.984 33.7461 24.01L31.4215 28.1206C31.4084 28.1422 31.404 28.1682 31.4084 28.1941C31.4695 28.6225 31.3124 28.9037 30.933 29.0336C30.9068 29.0422 30.885 29.0638 30.8676 29.0898L29.4981 31.5215C29.4806 31.5475 29.4894 31.5691 29.5155 31.5821C29.5722 31.6081 29.6289 31.6124 29.69 31.6037C29.7118 31.5994 29.7336 31.6037 29.7554 31.6081C29.9168 31.6687 30.0084 31.6081 30.0912 31.461C31.3779 29.1763 32.6645 26.8917 33.9468 24.5985C33.9729 24.5509 33.9773 24.4903 33.9598 24.4384L33.7985 24.01L33.8028 24.0143Z" fill="white"/>
<path d="M35.5081 14.6033C36.0838 14.6033 36.5461 14.1274 36.5461 13.5389C36.5461 12.9504 36.0795 12.4745 35.5081 12.4745C34.9368 12.4745 34.4701 12.9504 34.4701 13.5389C34.4701 14.1274 34.9368 14.6033 35.5081 14.6033Z" fill="white"/>
<path d="M30.6844 31.5173C30.9243 31.4264 31.3211 31.2966 31.4607 31.05C31.9492 30.1976 32.8695 28.5663 34.2215 26.1432C34.3742 25.8706 34.2782 25.5072 34.1779 25.2389C34.1648 25.2086 34.1517 25.2086 34.1386 25.2389L30.6451 31.4653C30.6277 31.4913 30.6539 31.5259 30.6844 31.5129V31.5173Z" fill="white"/>
<path d="M27.9541 19.6052C27.9498 19.6571 27.9541 19.6615 27.9847 19.6139L30.052 15.9317C30.052 15.9317 30.0476 15.9014 30.0302 15.9057C28.6738 16.5028 28.1024 18.2379 27.9541 19.6052Z" fill="white"/>
<path d="M28.9616 25.2821C28.9616 25.2821 28.9878 25.2865 28.9965 25.2735L32.0364 19.8735C32.0364 19.8735 32.0364 19.8648 32.0364 19.8605L31.9884 19.1336C31.9884 19.1076 31.9535 19.1033 31.9448 19.1249L28.6301 25.0312C28.6301 25.0312 28.6301 25.0571 28.6388 25.0615L28.9616 25.2821Z" fill="white"/>
<path d="M27.675 25.0139C27.8102 24.9922 28.1068 25.0009 28.1809 24.8667C29.7161 22.1494 31.2688 19.4365 32.7604 16.6932C32.7735 16.6672 32.7735 16.6413 32.7604 16.6196L32.599 16.2389C32.586 16.2086 32.5423 16.2042 32.5249 16.2345L27.627 24.9533C27.6096 24.9836 27.6357 25.0268 27.6706 25.0182L27.675 25.0139Z" fill="white"/>
<path d="M27.7971 16.9139C27.5311 16.9139 27.313 17.1346 27.313 17.4072C27.313 17.6798 27.5311 17.9005 27.7971 17.9005C28.0632 17.9005 28.2812 17.6798 28.2812 17.4072C28.2812 17.1346 28.0632 16.9139 27.7971 16.9139Z" fill="white"/>
<path d="M24.9186 28.0471L25.3809 27.8438C25.4071 27.8308 25.4202 27.8135 25.4289 27.7832C25.5641 26.974 25.961 26.1043 26.6065 25.5894C26.7678 25.4596 26.8725 25.3601 26.9118 25.2865C28.6738 22.1452 30.4402 19.0038 32.2066 15.8625C32.2196 15.8365 32.2153 15.8192 32.1891 15.8063L31.8794 15.6764C31.8489 15.6635 31.8271 15.6764 31.814 15.6981L24.8968 28.0125C24.8968 28.0125 24.9055 28.0514 24.923 28.0428L24.9186 28.0471Z" fill="white"/>
<path d="M28.3292 29.5744C28.7261 29.0509 29.1055 28.5879 29.6594 28.1076C29.7685 28.0124 29.8557 27.9086 29.9255 27.7874C30.9373 26.0004 31.9448 24.2134 32.9436 22.4307C32.9654 22.3918 32.9654 22.3398 32.9436 22.3009L32.6819 21.786C32.6819 21.786 32.6427 21.7643 32.6296 21.786L28.2856 29.5485C28.2856 29.5485 28.2856 29.5744 28.2943 29.5788C28.303 29.5874 28.3205 29.5831 28.3248 29.5744H28.3292Z" fill="white"/>
<path d="M27.2606 18.0692L21.6257 28.1293C21.6126 28.1553 21.6126 28.1769 21.6257 28.1986L21.8263 28.5144C21.8568 28.562 21.883 28.5577 21.9092 28.5144L27.4438 18.6793C27.4569 18.6577 27.4613 18.6317 27.4613 18.6014C27.4438 18.4067 27.3915 18.2293 27.3042 18.0692C27.2868 18.0389 27.2737 18.0389 27.2563 18.0692H27.2606Z" fill="white"/>
<path d="M22.4413 29.3885C22.4588 29.4187 22.4762 29.4231 22.4936 29.3885C24.1466 26.4505 25.7996 23.5082 27.4526 20.5659C27.614 20.276 27.6707 20.2067 27.6925 19.9298C27.7099 19.7178 27.6707 19.5663 27.5791 19.4668C27.5573 19.4452 27.5398 19.4452 27.5224 19.4755L22.245 28.9168C22.232 28.9428 22.232 28.9687 22.245 28.9947L22.4457 29.3841L22.4413 29.3885Z" fill="white"/>
<path d="M22.7815 30.7687C22.9516 30.5307 23.0693 30.2711 23.1347 29.9855C23.2438 29.4879 23.4575 29.1547 23.8151 28.8086C23.9329 28.6961 24.007 28.6139 24.0376 28.5576C26.4494 24.2826 28.8613 20.0076 31.2732 15.7283C31.2863 15.7023 31.2819 15.6893 31.2514 15.6893L30.7672 15.698C30.7367 15.698 30.7149 15.711 30.6975 15.7413C29.8077 17.3292 28.918 18.9215 28.0283 20.5095C27.9192 20.6999 27.8189 20.847 27.8233 21.0807C27.8233 21.2018 27.8625 21.5999 27.7797 21.6994C27.7666 21.7124 27.7448 21.7038 27.7448 21.6864L27.7709 21.1153C27.7709 21.0764 27.7186 21.059 27.7012 21.0937L22.6899 30.059C22.6768 30.085 22.6724 30.111 22.6724 30.1413L22.7466 30.7687C22.7466 30.7687 22.7684 30.7903 22.7815 30.7773V30.7687Z" fill="white"/>
<path d="M26.5847 27.4759C26.685 27.4499 26.7591 27.385 26.8158 27.2855C27.1647 26.6624 27.518 26.035 27.8756 25.4119C27.8931 25.3816 27.8757 25.347 27.8408 25.3427C27.6096 25.3254 27.4221 25.4076 27.2825 25.598C27.0077 25.9744 26.5149 26.7966 26.4974 27.4023C26.4974 27.4499 26.5411 27.4889 26.5847 27.4759Z" fill="white"/>
<path d="M31.4302 34.4076C31.4302 34.3773 31.4695 34.3644 31.4869 34.3903L31.6614 34.6543C31.6832 34.6846 31.7006 34.6846 31.7181 34.6543L33.0963 32.2096C33.1094 32.1879 33.1137 32.162 33.1006 32.136L32.9262 31.6644C32.9087 31.6211 32.8913 31.6211 32.8695 31.66L29.3324 37.9557C29.3193 37.9817 29.3149 38.0076 29.3324 38.0336L29.5243 38.462C29.533 38.4836 29.5679 38.4879 29.581 38.462C30.2221 37.324 30.8589 36.186 31.4913 35.048C31.596 34.862 31.4346 34.6153 31.4302 34.4076Z" fill="white"/>
<path d="M31.8358 36.3202L31.7224 35.7533C31.7137 35.7101 31.7006 35.7101 31.6788 35.7447L29.9255 38.8558C29.9037 38.899 29.943 38.9466 29.9866 38.9336C30.3922 38.7995 30.5449 38.2024 30.6713 37.8216C30.6844 37.787 30.7368 37.787 30.7455 37.8216C30.7673 37.9125 30.8196 37.9644 30.8938 37.9774C30.9243 37.986 30.9461 37.9731 30.9592 37.9471L31.8184 36.3981C31.8315 36.3721 31.8358 36.3461 31.8315 36.3159L31.8358 36.3202Z" fill="white"/>
<path d="M31.8881 39.4485C31.5523 39.4485 31.2775 39.7297 31.2775 40.0759C31.2775 40.422 31.5523 40.7033 31.8881 40.7033C32.224 40.7033 32.4987 40.422 32.4987 40.0759C32.4987 39.7297 32.224 39.4485 31.8881 39.4485Z" fill="white"/>
<path d="M28.8133 41.2962C29.1795 41.2962 29.4763 40.992 29.4763 40.6168C29.4763 40.2416 29.1795 39.9375 28.8133 39.9375C28.4472 39.9375 28.1504 40.2416 28.1504 40.6168C28.1504 40.992 28.4472 41.2962 28.8133 41.2962Z" fill="white"/>
<path d="M25.8388 30.137C25.8257 30.1067 25.7821 30.1067 25.769 30.137L25.1235 31.2793C25.1061 31.3139 25.1192 31.3572 25.1497 31.3745C25.2587 31.4264 25.3678 31.448 25.4855 31.4351C25.5161 31.4307 25.5422 31.4134 25.5553 31.3875L25.9958 30.6C26.022 30.5567 26.022 30.5004 25.9958 30.4572L25.8301 30.1413L25.8388 30.137Z" fill="white"/>
<path d="M33.3972 32.6985L32.0931 35.0177C32.0931 35.0177 32.0931 35.0437 32.1019 35.0524L32.4377 35.2471C32.4377 35.2471 32.4639 35.2471 32.4726 35.2384L33.7069 33.01C33.7069 33.01 33.7069 32.9884 33.7069 32.9798L33.4365 32.6985C33.4365 32.6985 33.4059 32.6899 33.3972 32.7028V32.6985Z" fill="white"/>
<path d="M26.4015 30.9547C26.4015 30.9547 26.3622 30.9418 26.3491 30.9591L26.1398 31.3312C26.1223 31.3572 26.1529 31.3918 26.179 31.3788L26.5585 31.1971C26.5585 31.1971 26.5803 31.1624 26.5672 31.1451L26.3971 30.9547H26.4015Z" fill="white"/>
<path d="M29.2844 28.8821L27.7099 30.6345C27.6881 30.6562 27.6924 30.6778 27.7099 30.6994L28.0196 30.9807C28.0544 31.011 28.1068 31.0023 28.1286 30.9634L29.2975 28.8951C29.3323 28.8345 29.3236 28.8302 29.28 28.8821H29.2844Z" fill="white"/>
<path d="M31.9187 37.2417L31.3168 38.3191C31.2993 38.3494 31.3124 38.3884 31.3386 38.4057C32.1062 38.8557 32.0015 37.6009 31.9535 37.2504C31.9535 37.2331 31.9274 37.2244 31.9143 37.2417H31.9187Z" fill="white"/>
<path d="M36.1362 36.411L35.7305 36.2595C35.7305 36.2595 35.6913 36.2595 35.6826 36.2768L34.5835 38.2759C34.5835 38.2759 34.566 38.3148 34.5704 38.3408L34.6184 39.0634C34.6184 39.0937 34.6576 39.1023 34.6707 39.0807C34.7841 38.9119 34.8931 38.7345 34.9978 38.5441C35.1461 38.2802 35.0981 37.986 35.0327 37.7134C35.0109 37.6312 35.0807 37.5576 35.1636 37.5706L35.4645 37.6268C35.4907 37.6312 35.5125 37.6225 35.5299 37.5965L36.1623 36.4672C36.1754 36.4456 36.1623 36.4153 36.1405 36.411H36.1362Z" fill="white"/>
<path d="M36.1057 37.5317L35.8527 37.9861C35.8396 38.012 35.8396 38.0337 35.8527 38.0596C35.9923 38.3495 36.0969 38.6524 36.1667 38.9639C36.1711 38.9942 36.2103 39.0072 36.2322 38.9899C36.7032 38.6308 36.411 37.9471 36.1667 37.5317C36.1536 37.5101 36.1188 37.5101 36.11 37.5317H36.1057Z" fill="white"/>
<path d="M36.6115 36.7139C36.6115 36.7139 36.5723 36.7052 36.5636 36.7268L36.3062 37.1855C36.2932 37.2115 36.2975 37.2418 36.3193 37.2591C36.5985 37.4754 36.8253 37.7393 36.9997 38.0552C37.0172 38.0898 37.0651 38.0812 37.0782 38.0466C37.257 37.4711 37.1 37.0254 36.6115 36.7139Z" fill="white"/>
<path d="M33.3972 35.4808L34.3262 33.7759C34.3262 33.7759 34.3305 33.75 34.3262 33.737L34.1255 33.3779C34.1124 33.3519 34.0732 33.3519 34.0601 33.3779L32.9479 35.3812C32.9349 35.4072 32.9479 35.4375 32.9741 35.4418L33.3579 35.5024C33.3579 35.5024 33.3884 35.4981 33.3972 35.4808Z" fill="white"/>
<path d="M52.4785 11.4317C52.8448 10.9125 53.2374 10.3456 53.4729 9.5019C53.5994 9.0519 53.7171 8.61055 53.6168 8.04373C53.5514 7.66296 53.4118 7.35142 53.2635 7.10911C53.1588 6.93603 52.8972 6.97498 52.8492 7.16969C52.7489 7.57209 52.6006 8.03507 52.3738 8.53699C51.8766 9.64469 51.2616 10.3716 51.0261 10.6312C50.6249 11.0812 50.0143 11.7476 48.998 12.2322C48.6491 12.3966 48.3438 12.5005 48.1301 12.561C49.2292 11.224 49.8878 9.98219 50.2847 9.10815C50.7383 8.09998 51.0697 7.06151 51.0523 5.88026C51.0392 5.01488 50.8429 4.56055 50.5551 4.23603C50.5551 4.23603 50.5507 4.22738 50.5464 4.22305C50.2672 3.91151 49.7482 4.14517 49.7962 4.56055C49.8267 4.81584 49.8354 5.10142 49.8093 5.4043C49.7657 5.87594 49.6479 6.28267 49.2903 7.08747C48.998 7.74949 48.5663 8.64517 47.9426 9.67498L46.7955 11.0639L46.5251 11.3668C46.4989 11.3971 46.451 11.3668 46.4684 11.3279C46.8435 10.3759 47.1793 9.39805 47.4759 8.39421L48.1083 6.62449C48.2086 6.11392 48.3831 5.17065 48.4659 4.2144C48.4834 4.00238 48.5052 3.6995 48.3656 3.35767C48.2959 3.18892 48.2043 3.05046 48.1083 2.93796C47.9818 2.79084 47.7376 2.86007 47.7158 3.05478C47.7158 3.08507 47.7071 3.11103 47.7071 3.14132C47.6678 3.45719 47.6111 3.7168 47.5631 3.92882C47.5413 4.02834 47.5195 4.11055 47.5064 4.1668C47.5064 4.15815 47.5064 4.15815 47.5064 4.1668C47.0049 6.41248 46.0235 8.8269 44.4011 10.588C44.3836 10.6096 44.3488 10.588 44.3531 10.562C44.5668 9.5019 46.1675 1.25046 43.917 1.67882C43.8821 1.68748 43.8559 1.71776 43.8559 1.75671C44.0653 5.15334 43.8559 9.0519 42.3556 12.15C42.3469 12.1673 42.3207 12.163 42.3207 12.1413C42.3207 11.488 42.3992 1.16825 40.249 2.74757C40.2141 2.77353 40.201 2.80382 40.2098 2.84709C40.5761 5.17065 40.8029 7.52017 40.7331 9.88267C40.6939 11.1981 40.5151 12.6952 39.7911 13.8115C39.7736 13.8418 39.7256 13.8245 39.73 13.7899C39.839 12.7557 40.3319 6.39517 38.1773 6.82786C38.1163 6.84084 38.0901 6.87546 38.1032 6.94036C38.3518 8.48074 39.6559 17.3206 37.0652 17.338C37.0346 17.338 37.0041 17.3163 36.9997 17.2817C36.8514 16.4553 36.4371 15.6548 35.4602 16.2822C35.4383 16.2952 35.4296 16.3255 35.4383 16.3471C35.6259 16.8144 36.1536 18.2033 35.5212 18.5235C35.4602 18.5538 35.3075 18.5755 35.0633 18.5841C34.5137 18.6057 33.5586 18.861 34.095 19.6918C34.4309 20.2154 35.1025 21.4918 34.7318 22.1452C34.5443 22.4783 34.1081 22.5779 33.7505 22.5432C33.7112 22.5432 33.685 22.5865 33.7112 22.6211C35.386 24.8062 35.5038 27.5798 33.7679 29.7908C33.7243 29.8471 33.6981 29.9553 33.7112 30.0072C33.9162 30.9029 34.4701 31.2144 35.3642 30.9418C35.3904 30.9331 35.4035 30.9418 35.3991 30.9721C35.2857 31.8418 35.7088 32.2096 36.5156 31.8245C36.5461 31.8115 36.5592 31.8202 36.5636 31.8548C36.5898 32.1836 36.7424 32.7245 37.0564 32.8803C37.5144 33.1096 37.9374 32.6206 38.2602 32.3351C38.2776 32.3178 38.2994 32.3178 38.3125 32.3351C39.0496 33.1831 39.7736 33.0447 40.092 31.95C40.0964 31.9327 40.1182 31.9283 40.1269 31.9456C40.9468 33.2524 41.95 33.1918 42.5693 31.7596C42.578 31.7336 42.5955 31.7293 42.6173 31.7466C44.2005 32.8543 45.4391 29.8731 45.8578 28.8822C45.8665 28.8605 45.884 28.8389 45.9014 28.8259C46.4946 28.3889 47.0223 27.8783 47.4803 27.3029C47.8161 26.9437 48.1825 26.4894 48.5357 25.9269C48.6884 25.6846 49.1594 24.9057 49.5258 23.7548C49.8093 22.8634 49.9052 22.1062 50.0971 20.5961C50.2323 19.5274 50.1974 19.4452 50.3239 18.8307C50.5115 17.9307 50.7601 17.2557 50.9869 16.6543C51.2878 15.8452 51.4404 15.4428 51.7109 15.0706C52.195 14.4043 52.5221 14.387 52.871 13.8981C53.1109 13.5606 53.3333 13.0327 53.3028 12.1846C53.2941 11.9336 52.9975 11.8081 52.8056 11.9726C52.6529 12.1024 52.5308 12.2192 52.4392 12.3144C52.1339 12.6173 51.9725 12.8293 51.6542 12.9288C51.4361 12.9981 51.2398 12.9851 51.1177 12.9678C51.7545 12.3923 52.195 11.8384 52.4828 11.4274L52.4785 11.4317ZM46.6472 24.261C46.6254 24.3173 46.5905 24.3779 46.5513 24.4384C45.7662 25.5851 45.0335 26.338 44.3139 26.7317C44.1176 26.8399 43.8516 26.9048 43.6029 26.9048C43.2453 26.9048 42.9575 26.775 42.7961 26.5413C42.4341 26.0178 42.8397 25.0788 43.1319 24.3952C43.2235 24.1875 43.2976 24.0057 43.3413 23.8759C43.3849 23.7418 43.3805 23.638 43.3369 23.5687C43.2758 23.4735 43.1188 23.4086 42.8659 23.374L42.7656 23.361L42.7132 23.2572C42.7132 23.2572 42.7132 23.2442 42.7089 23.2399C42.7001 23.2529 42.6958 23.2658 42.687 23.2788C41.7101 25.0399 40.7855 26.7014 38.6309 26.8442C38.5699 26.8442 38.5088 26.8485 38.4434 26.8485C37.6452 26.8485 36.7511 26.5327 36.629 25.6543C36.5767 25.2822 36.6944 25.0615 36.7991 24.936C36.9256 24.7889 37.1131 24.7067 37.3138 24.7067C37.5318 24.7067 37.7325 24.8062 37.8371 24.9706C37.9418 25.1351 37.9462 25.3428 37.8459 25.5591C37.8066 25.6456 37.7237 25.7495 37.5667 25.8014C37.5754 25.9702 37.6278 26.1043 37.7237 26.2038C37.8895 26.3726 38.1512 26.4115 38.3431 26.4115C39.5206 26.4115 40.297 25.2605 40.9643 24.0187L40.9861 23.9798C41.7014 22.6428 42.5824 20.9985 43.9868 20.2456C43.8995 20.211 43.8079 20.1851 43.712 20.1634C43.3543 20.0899 42.988 20.0509 42.6216 20.0509C41.069 20.0509 39.73 20.7043 38.9449 21.8466C38.6527 22.2706 38.4259 23.0192 38.548 23.5428C38.6047 23.7764 38.7269 23.9495 38.9144 24.0533C39.0845 24.1485 39.2546 24.1961 39.4247 24.1961C40.2054 24.1961 40.8204 23.2312 40.9599 22.5389C40.9905 22.3831 40.9992 22.1971 41.0035 22.0024C41.0035 21.8812 41.0123 21.7557 41.021 21.6346C41.0297 21.5394 41.1082 21.4658 41.2042 21.4615C41.3088 21.4615 41.3917 21.5307 41.4048 21.6259C41.5749 22.8894 41.0079 24.0447 39.9917 24.5033C39.7605 24.6072 39.4858 24.6634 39.1979 24.6634C38.6527 24.6634 37.9636 24.4471 37.6714 23.8327C37.1044 22.6428 38.0596 21.388 38.8359 20.8341C39.9437 20.0423 41.3088 19.6096 42.6696 19.6096C43.3762 19.6096 44.0653 19.7221 44.7238 19.9471C45.0771 19.8086 45.4435 19.7178 45.8186 19.6788L45.9014 19.6702L45.9756 19.7351C46.0105 19.774 46.0279 19.8216 46.0235 19.8779C46.0235 19.9817 45.9581 20.0639 45.8622 20.0769C45.6485 20.1115 45.4391 20.1678 45.2385 20.2456C45.6354 20.5658 45.8578 20.9596 45.884 21.4053C45.9101 21.8466 45.7793 22.236 45.4958 22.5562C45.0466 23.0625 44.3531 23.2529 43.9039 23.3264C44.5537 23.8413 44.2833 24.6029 44.0391 25.2822C43.8995 25.6716 43.7556 26.074 43.7949 26.3985C43.8079 26.3985 43.821 26.4029 43.8385 26.4029C44.0565 26.4029 44.4622 26.1432 44.6671 25.9658C45.317 25.4077 45.8535 24.6937 46.307 24.075C46.3463 24.0231 46.4074 23.9884 46.4684 23.9884H46.5033L46.5556 24.0057L46.6123 24.0317L46.6647 24.1009L46.6952 24.1702L46.6603 24.2481L46.6472 24.261Z" fill="white"/>
<path d="M44.3924 22.3832C44.7674 21.8986 44.9245 21.1716 44.5537 20.6567C44.231 20.9164 43.9475 21.2192 43.712 21.5611C43.3936 22.024 43.1057 22.5216 42.8353 23.0106C42.8659 22.9933 42.892 22.9889 42.9226 22.9889C42.9836 22.9889 43.0272 22.9933 43.0752 22.9933C43.4634 22.9933 44.0086 22.8894 44.3967 22.3832H44.3924Z" fill="white"/>
<path d="M35.1592 36.1514L34.8626 35.9956C34.8365 35.9826 34.819 35.987 34.8059 36.0129L34.0558 37.3543C34.0558 37.3543 34.047 37.3889 34.0558 37.4019C34.0645 37.4148 34.0732 37.4235 34.0819 37.4322C34.1168 37.4581 34.1343 37.4711 34.1386 37.4754C34.191 37.536 34.2477 37.6009 34.3087 37.6615C34.3349 37.6874 34.3567 37.6831 34.3741 37.6528L35.1766 36.199C35.1766 36.199 35.1854 36.16 35.1636 36.1514H35.1592Z" fill="white"/>
<path d="M33.3099 37.1812C33.1442 37.4018 33.057 37.6139 33.105 37.6571C33.1573 37.6961 33.3318 37.549 33.4975 37.3283C33.6632 37.1076 33.7505 36.8956 33.7025 36.8523C33.6501 36.8134 33.4757 36.9605 33.3099 37.1812Z" fill="white"/>
<path d="M34.1822 36.1124L34.4875 35.5326C34.4875 35.5326 34.4875 35.5153 34.4875 35.511L34.3174 35.1908C34.3174 35.1908 34.3174 35.1778 34.3174 35.1735L34.4396 34.7365C34.4396 34.7365 34.4396 34.7105 34.4265 34.7062C34.4134 34.7018 34.4003 34.7062 34.3959 34.7148L33.842 35.7014C33.842 35.7014 33.842 35.723 33.842 35.7273L34.143 36.1167C34.143 36.1167 34.1735 36.1297 34.1822 36.1167V36.1124Z" fill="white"/>
<path d="M23.7017 36.6447C23.693 36.7139 23.7017 36.7182 23.7366 36.6577L26.6414 31.4956C26.6544 31.4697 26.6283 31.4437 26.6021 31.4567C26.4276 31.5605 25.8912 31.7769 25.804 31.9283C25.2283 32.9452 24.6569 33.962 24.0899 34.9831C23.8457 35.4245 23.7628 36.2163 23.6974 36.6447H23.7017Z" fill="white"/>
<path d="M21.4861 36.6533H21.2986C21.2724 36.6533 21.2549 36.6273 21.2593 36.6013C21.3814 36.1383 21.6169 35.7533 21.9702 35.446C21.9877 35.4287 22.0095 35.4244 22.0313 35.4244H22.197C22.2232 35.4244 22.245 35.4114 22.2581 35.3898L24.1902 31.9629C24.2076 31.9326 24.1989 31.9109 24.1684 31.8936L23.8718 31.7465C23.8413 31.7335 23.8195 31.7379 23.802 31.7682C22.7945 33.5682 21.7827 35.3682 20.7708 37.1682C20.5309 37.6009 20.4786 37.9816 20.4961 38.4489C20.4961 38.4922 20.5091 38.4965 20.5309 38.4576L21.5123 36.7008C21.5297 36.6662 21.521 36.6489 21.4817 36.6489L21.4861 36.6533Z" fill="white"/>
<path d="M20.9584 38.7172L20.8014 38.9898C20.8014 38.9898 20.8014 39.0201 20.8145 39.0244L20.9192 39.0634C20.9192 39.0634 20.9453 39.0634 20.9497 39.0461L21.002 38.7345C21.002 38.7086 20.9715 38.6956 20.9584 38.7172Z" fill="white"/>
<path d="M25.455 28.9428C25.455 28.9125 25.4114 28.9038 25.3983 28.9298L24.465 30.6043C24.4519 30.6303 24.4475 30.6562 24.4563 30.6822C24.4912 30.812 24.5522 30.9245 24.6482 31.0197C24.6743 31.0457 24.7136 31.037 24.731 31.0067C24.9884 30.5437 25.25 30.0808 25.5074 29.6264C25.6164 29.4361 25.4725 29.1548 25.455 28.9428Z" fill="white"/>
<path d="M23.4313 31.3831L23.2482 31.0715C23.2307 31.0413 23.1871 31.0413 23.1697 31.0715C22.5285 32.2182 21.8874 33.3605 21.2419 34.5028C21.0631 34.8187 21.3422 34.9312 21.2419 35.1735C21.1154 35.4893 20.9148 35.7619 20.6444 35.9956C20.6269 36.0129 20.6051 36.0215 20.5833 36.0259C19.759 36.147 18.0014 36.7571 18.5378 37.9816C18.5509 38.0119 18.5945 38.0119 18.6076 37.9816C18.8344 37.5316 19.1746 37.2028 19.6282 36.9994C19.6587 36.9865 19.6849 37.0211 19.6674 37.047C19.3665 37.5446 18.9914 38.1288 19.1702 38.7432C19.1877 38.8081 19.2793 38.8211 19.3098 38.7605L23.427 31.4566C23.4401 31.4307 23.4401 31.409 23.427 31.3874L23.4313 31.3831Z" fill="white"/>
<path d="M18.3328 35.9869C18.3328 35.5542 17.9883 35.2037 17.5652 35.2037C17.1422 35.2037 16.7976 35.5542 16.7976 35.9869C16.7976 36.4196 17.1422 36.7701 17.5652 36.7701C17.9883 36.7701 18.3328 36.4196 18.3328 35.9869Z" fill="white"/>
<path d="M17.0331 37.8129C16.8281 37.8129 16.658 37.9859 16.658 38.1936C16.658 38.4013 16.8238 38.5744 17.0331 38.5744C17.2425 38.5744 17.4082 38.4013 17.4082 38.1936C17.4082 37.9859 17.2425 37.8129 17.0331 37.8129Z" fill="white"/>
<path d="M22.0619 36.8524C22.0357 36.8351 22.0008 36.8437 21.9877 36.8697L21.7827 37.2375C21.7696 37.2591 21.7827 37.2894 21.8089 37.2937C22.0619 37.3327 22.2843 37.4452 22.4675 37.6269C22.4849 37.6442 22.5198 37.6269 22.5154 37.6009C22.4631 37.2851 22.3148 37.0341 22.0662 36.8524H22.0619Z" fill="white"/>
<path d="M18.2368 40.1105C18.4705 40.1105 18.6599 39.9168 18.6599 39.6778C18.6599 39.4388 18.4705 39.2451 18.2368 39.2451C18.0032 39.2451 17.8138 39.4388 17.8138 39.6778C17.8138 39.9168 18.0032 40.1105 18.2368 40.1105Z" fill="white"/>
<path d="M21.4992 40.9542C21.2113 40.9542 20.9758 41.1922 20.9758 41.4908C20.9758 41.7893 21.2113 42.0273 21.4992 42.0273C21.7871 42.0273 22.0226 41.7893 22.0226 41.4908C22.0226 41.1922 21.7871 40.9542 21.4992 40.9542Z" fill="white"/>
<path d="M25.1105 39.7947C24.5391 39.7947 24.0724 40.2706 24.0724 40.8548C24.0724 41.4389 24.5348 41.9149 25.1105 41.9149C25.6862 41.9149 26.1485 41.4389 26.1485 40.8548C26.1485 40.2706 25.6862 39.7947 25.1105 39.7947Z" fill="white"/>
<path d="M31.0551 31.6816L30.3834 31.9369C30.3834 31.9369 30.3747 31.9456 30.3703 31.9499L26.6588 38.5831C26.6588 38.5831 26.6588 38.6047 26.6588 38.6134L26.9684 38.9682C26.9684 38.9682 27.0033 38.9812 27.012 38.9682L31.0856 31.7249C31.0856 31.7249 31.0769 31.6773 31.0551 31.686V31.6816Z" fill="white"/>
<path d="M29.7205 32.0408L29.2408 32.0668C29.2059 32.0668 29.1754 32.0884 29.1535 32.1187L25.4332 38.7C25.4071 38.7476 25.4332 38.8081 25.4856 38.8211C25.9304 38.912 26.1572 38.2543 26.2576 37.9125C26.2706 37.8692 26.2924 37.8649 26.3186 37.8995L26.3797 37.973C26.4015 37.999 26.4189 37.9947 26.4364 37.9687L29.7467 32.0798C29.7467 32.0798 29.7467 32.0365 29.7205 32.0365V32.0408Z" fill="white"/>
<path d="M25.1846 28.2418C24.6045 28.5749 24.212 29.1721 24.2294 29.8773C24.2294 29.9725 24.2556 29.9812 24.3036 29.8946L25.2195 28.2764C25.2326 28.2547 25.2064 28.2288 25.1846 28.2418Z" fill="white"/>
<path d="M24.9186 37.6962L25.0756 38.2154C25.0843 38.2457 25.1279 38.25 25.141 38.224L28.6171 32.0798C28.6301 32.0582 28.6171 32.0279 28.5909 32.0236L28.1547 31.9457C28.1547 31.9457 28.1242 31.95 28.1155 31.963L24.9186 37.6659C24.9186 37.6659 24.9142 37.6875 24.9186 37.6962Z" fill="white"/>
<path d="M17.3515 32.5341C17.3515 32.5341 17.3864 32.5124 17.4038 32.5341C17.7309 32.824 18.1627 33.3173 18.625 33.0836C18.9434 32.9235 19.1004 32.374 19.1266 32.0451C19.1266 32.0105 19.144 32.0019 19.1746 32.0148C19.9945 32.4043 20.4219 32.0322 20.3085 31.1495C20.3085 31.1192 20.3173 31.1105 20.3434 31.1192C21.2506 31.3961 21.8089 31.0846 22.0182 30.1759C22.0313 30.124 22.0051 30.0115 21.9615 29.9552C20.2082 27.7182 20.3216 24.9057 22.0182 22.6947C22.0444 22.66 22.0182 22.6124 21.979 22.6168C21.617 22.6514 21.1765 22.5475 20.9889 22.2144C20.6138 21.5523 21.2942 20.2586 21.6344 19.7307C22.1796 18.887 21.2114 18.6317 20.6531 18.61C20.4088 18.6014 20.2518 18.5798 20.1908 18.5495C19.5453 18.2293 20.0861 16.8187 20.2736 16.3471C20.2824 16.3211 20.2736 16.2951 20.2518 16.2822C19.2618 15.6504 18.8431 16.4596 18.6904 17.2947C18.6861 17.3293 18.6556 17.3509 18.625 17.3509C15.9994 17.3336 17.321 8.3812 17.5696 6.81918C17.5783 6.75427 17.5565 6.71966 17.4954 6.70668C15.3147 6.26966 15.8119 12.7124 15.9253 13.7596C15.9253 13.7942 15.8817 13.8158 15.8642 13.7812C15.1315 12.6475 14.9483 11.1331 14.9091 9.80043C14.8393 7.41197 15.0705 5.03216 15.4412 2.67831C15.4499 2.63937 15.4325 2.60475 15.4019 2.57879C13.2256 0.977831 13.2997 11.4317 13.3041 12.0937C13.3041 12.111 13.2779 12.1197 13.2692 12.1024C11.7514 8.96533 11.5377 5.01485 11.7514 1.57495C11.7514 1.536 11.7296 1.50572 11.6903 1.49706C9.41367 1.06437 11.0361 9.41966 11.2498 10.4971C11.2542 10.5274 11.2193 10.5447 11.2019 10.523C9.5576 8.74033 8.56319 6.29562 8.05727 4.02398C8.05727 4.01533 8.05727 4.01533 8.05727 4.02398C8.04418 3.96341 8.02237 3.8812 8.00057 3.78168C7.95259 3.56533 7.89589 3.30572 7.85228 2.9812C7.85228 2.95523 7.84355 2.92495 7.84355 2.89466C7.82175 2.69995 7.57315 2.62639 7.44666 2.77783C7.34635 2.89466 7.25476 3.03745 7.18498 3.2062C7.04105 3.55235 7.06286 3.85956 7.08467 4.07158C7.16753 5.04081 7.34199 5.99706 7.44666 6.51197L8.0878 8.30331C8.38873 9.31581 8.72893 10.3067 9.10837 11.2716C9.12146 11.3105 9.07784 11.3408 9.05167 11.3105L8.7769 11.0033L7.61676 9.59706C6.98871 8.55427 6.54821 7.64562 6.25163 6.97495C5.89399 6.15716 5.77187 5.7461 5.72826 5.27014C5.70209 4.9586 5.71081 4.67302 5.74134 4.41341C5.78932 3.9937 5.26595 3.76004 4.98245 4.07158C4.98245 4.07158 4.97373 4.08023 4.97373 4.08456C4.68151 4.41341 4.48525 4.87206 4.47217 5.75043C4.45036 6.94466 4.78619 7.9961 5.2485 9.01725C5.64975 9.90427 6.31705 11.1591 7.42922 12.5134C7.21115 12.4528 6.90148 12.349 6.54821 12.1802C5.51455 11.6913 4.89959 11.012 4.49397 10.5576C4.25409 10.2894 3.63041 9.55812 3.12884 8.43312C2.90205 7.92687 2.7494 7.45524 2.64909 7.0485C2.60111 6.84947 2.33506 6.81485 2.22603 6.98793C2.07774 7.23456 1.93381 7.55043 1.86839 7.93552C1.76808 8.511 1.8902 8.95668 2.01668 9.41533C2.25656 10.2721 2.65345 10.8475 3.02417 11.3711C3.31639 11.7865 3.76561 12.349 4.40674 12.9331C4.28026 12.9504 4.07964 12.9591 3.86157 12.8899C3.53446 12.786 3.37308 12.574 3.06342 12.2668C2.96747 12.1716 2.84099 12.0548 2.68834 11.9206C2.49644 11.7519 2.1955 11.8817 2.18677 12.137C2.15188 12.998 2.37868 13.5302 2.62292 13.8721C2.97619 14.3653 3.30766 14.3826 3.79614 15.0576C4.07091 15.4341 4.22356 15.8408 4.52886 16.6586C4.76002 17.273 5.01298 17.9567 5.20053 18.8653C5.33137 19.4884 5.29212 19.5749 5.43168 20.6567C5.62795 22.1884 5.7239 22.9543 6.01175 23.8586C6.38247 25.0225 6.86223 25.8144 7.01488 26.061C7.36816 26.6278 7.74324 27.0908 8.08343 27.4543C8.54575 28.0384 9.0822 28.5533 9.67972 28.999C9.69716 29.012 9.71461 29.0336 9.72333 29.0552C10.1508 30.0634 11.4025 33.0793 13.0075 31.9586C13.0293 31.9413 13.0467 31.9456 13.0555 31.9716C13.6835 33.4254 14.6954 33.4817 15.5284 32.162C15.5371 32.149 15.5589 32.149 15.5633 32.1663C15.886 33.2783 16.6188 33.4124 17.3646 32.5557L17.3515 32.5341ZM16.091 26.6841H16.0474C15.6244 26.6841 15.4106 26.4807 15.3103 26.3076C14.9047 25.6283 15.4237 24.2653 15.6723 23.7461H14.739C13.858 24.7802 12.5452 26.3163 11.0448 26.5932C10.9009 26.6192 10.7483 26.6322 10.5956 26.6322C9.83673 26.6322 9.26538 26.3206 9.06476 25.7971C8.92955 25.4379 8.9688 24.9144 9.31772 24.6504C9.45292 24.5466 9.59249 24.4947 9.73206 24.4947C10.081 24.4947 10.3078 24.8148 10.3165 25.1091C10.3252 25.3644 10.1682 25.6283 9.8062 25.6846C9.95013 26.0177 10.1944 26.1778 10.5738 26.1865H10.6218C11.6118 26.1865 12.7807 25.386 14.1022 23.8067C15.4935 22.1451 17.1639 20.3019 19.3795 19.51L19.4057 19.5014H19.4537C19.5366 19.5014 19.6151 19.549 19.6543 19.6269C19.6892 19.7048 19.6761 19.7956 19.6194 19.8605C18.782 20.8081 18.0188 21.8379 17.3428 22.9283C16.8717 23.6855 16.3265 24.6894 16.2437 25.7668C16.2219 26.0307 16.2786 26.1173 16.3004 26.1432C16.3135 26.1562 16.3353 26.1735 16.3876 26.1735C16.5664 26.1735 16.8674 25.9918 17.0854 25.81C17.7004 25.2995 18.2892 24.6677 18.8344 23.9322C18.878 23.8716 18.939 23.8413 19.0088 23.8413C19.0524 23.8413 19.0917 23.8543 19.1266 23.8759L19.1833 23.9105L19.2138 23.9971C19.2269 24.049 19.2138 24.1009 19.1833 24.1485C18.7908 24.7326 17.4082 26.6451 16.0867 26.6841H16.091Z" fill="white"/>
<path d="M18.4854 20.2024C18.4854 20.2024 18.4593 20.1851 18.4462 20.1937C17.0287 21.0245 15.8686 22.1581 14.8131 23.4173C14.7826 23.4519 14.7913 23.4735 14.8393 23.4735H15.934C15.9645 23.4735 15.9907 23.4605 16.0038 23.4302C16.6754 22.2403 17.4997 21.1802 18.4767 20.2413C18.4854 20.2326 18.4898 20.2153 18.4767 20.2024H18.4854Z" fill="white"/>
<path d="M25.1759 32.0538C25.1933 32.0235 25.1846 32.0062 25.1497 32.0062H24.7528C24.731 32.0062 24.7092 32.0192 24.7005 32.0408L22.9123 35.2341C22.8905 35.2687 22.8992 35.2817 22.9385 35.2687C23.3048 35.1476 23.5316 34.9788 23.7366 34.6154C24.2207 33.763 24.7005 32.9106 25.1803 32.0538H25.1759Z" fill="white"/>
<path d="M27.6096 31.7813L27.204 31.5692C27.1821 31.5563 27.156 31.5692 27.1429 31.5865C26.0613 33.5077 24.984 35.4332 23.9067 37.3587C23.6756 37.774 23.488 37.9774 23.7846 38.3625C23.8369 38.4274 23.9329 38.4188 23.9721 38.3495L27.6314 31.8591C27.6488 31.8332 27.6357 31.7942 27.6096 31.7813Z" fill="white"/>
<path d="M27.9759 38.4013C27.9759 38.4013 27.9672 38.3754 27.9759 38.3581C28.0239 38.2672 28.098 38.1287 28.1983 37.9513C29.4806 35.6754 30.7672 33.3994 32.0582 31.1235C32.1716 30.9244 32.3112 30.7557 32.4638 30.5739C32.6208 30.3879 32.7822 30.1932 32.9087 29.9638C32.9305 29.9292 32.9218 29.8903 32.8869 29.8643C32.852 29.8384 32.8389 29.834 32.8215 29.834H32.804L32.7691 29.86C32.7124 29.9249 32.6688 30.0028 32.6252 30.0763C32.6034 30.1153 32.5816 30.1542 32.5598 30.1845C31.7485 31.3441 30.6102 31.9326 29.1797 31.9326C29.136 31.9326 29.0924 31.9326 29.0488 31.9326C28.2376 31.911 27.5005 31.673 26.8594 31.2187C26.8419 31.2057 26.8245 31.2013 26.8027 31.2013C26.7809 31.2013 26.7678 31.2057 26.7503 31.2187C26.07 31.6816 25.5161 31.8763 24.9055 31.8763C24.8182 31.8763 24.731 31.8763 24.6438 31.8634C23.8631 31.7898 23.3048 31.2836 23.2132 30.5653C23.1347 29.9336 23.3528 29.4013 23.9198 28.8432C24.321 28.4494 24.779 28.2417 25.2631 28.0211L25.4637 27.9302C25.4986 27.9129 25.5248 27.8826 25.5291 27.8437C25.7429 26.472 26.7111 25.0874 28.1416 25.0874C28.5036 25.0874 28.9223 25.2518 28.9878 25.6932C29.1404 26.723 27.5703 27.2638 26.6282 27.5884L26.5105 27.6273C26.5105 27.6273 26.541 27.5797 26.5497 27.5754L26.5628 27.584L26.5846 27.5927C26.9989 27.4542 27.3522 27.2422 27.6575 26.9566C27.6837 26.935 27.6968 26.9004 27.6924 26.8614C27.6793 26.7446 28.0021 26.1562 28.0893 26.1259C28.1242 26.1172 28.1504 26.0912 28.1591 26.0566C28.242 25.7884 28.2201 25.5504 28.1024 25.3903C28.0152 25.2735 27.88 25.2086 27.7273 25.2086C27.531 25.2086 27.3348 25.3081 27.169 25.4941C26.6021 26.1259 26.336 26.9263 26.384 27.8696C26.4232 28.6961 26.7198 29.8427 27.4264 30.5739C27.4438 30.5912 27.4613 30.5999 27.4831 30.5999C27.5049 30.5999 27.5267 30.5912 27.5398 30.5739C27.9105 30.2062 28.2594 29.8124 28.5952 29.4273C28.9485 29.0249 29.3149 28.6052 29.7074 28.2244C29.908 28.034 30.2744 27.8047 30.6538 27.8047C30.8414 27.8047 31.0027 27.861 31.1336 27.9778C31.2513 28.0816 31.3124 28.259 31.295 28.4408C31.2775 28.6182 31.1903 28.761 31.0594 28.8388C30.9679 28.8908 30.8719 28.9211 30.7803 28.9211C30.6538 28.9211 30.5361 28.8691 30.4532 28.7783C30.3616 28.6744 30.318 28.5316 30.3354 28.3672V28.3499L30.3224 28.3153L30.3093 28.3023H30.2657L30.2351 28.3326C30.1261 28.4667 30.1261 28.6095 30.2351 28.7393C30.3703 28.9124 30.3398 28.96 30.2613 29.0898C30.2439 29.1201 30.222 29.1547 30.2002 29.1937C29.7859 29.9379 29.3672 30.6821 28.9441 31.4263L28.5647 31.2792L30.209 28.3412C30.209 28.3412 30.2264 28.3196 30.2395 28.311C30.3224 28.2634 30.3791 28.1985 30.4139 28.1119C30.427 28.0816 30.4227 28.06 30.4139 28.0384L30.4009 28.0211L30.3529 28.0124C29.8775 28.0557 29.4413 28.497 29.1142 28.8735C28.617 29.4489 28.1068 30.0201 27.5921 30.5739C27.5441 30.6259 27.5441 30.6864 27.5921 30.7384C28.2289 31.3787 29.0052 31.7206 29.9037 31.7422H29.9691C31.1292 31.7422 32.1367 30.9677 33.0483 29.3754C33.467 28.6441 33.8726 27.9215 34.2651 27.2162C34.1648 27.8523 33.9031 28.4062 33.4931 28.8562C33.0744 29.3148 32.9043 30.0114 32.8345 30.5134C32.8127 30.6735 32.7299 30.8206 32.6601 30.9417C31.1859 33.5725 29.7074 36.2033 28.2245 38.8384L28.2158 38.8557L27.9715 38.4143L27.9759 38.4013ZM25.3678 28.0037C24.4039 28.4148 23.9067 29.4187 24.1902 30.3879C24.4083 31.1364 24.9403 31.5605 25.6513 31.5605C25.708 31.5605 25.769 31.5605 25.8301 31.5518C26.1528 31.5215 26.4494 31.409 26.7067 31.2187C26.7242 31.2057 26.7373 31.184 26.7416 31.1581C26.7416 31.1321 26.7329 31.1105 26.7155 31.0932C25.8911 30.3403 25.4506 29.2499 25.5073 28.0989C25.5073 28.073 25.4986 28.0427 25.4812 28.0254C25.4637 28.0081 25.4376 27.9951 25.4114 27.9951H25.4027L25.3721 28.0037H25.3678Z" fill="white"/>
</g>
</g>
<path d="M76.9344 16H78.5144V30H76.9344V28.42C76.4811 28.9267 75.9411 29.3333 75.3144 29.64C74.7011 29.9467 74.0344 30.1 73.3144 30.1C72.3544 30.1 71.4811 29.88 70.6944 29.44C69.9211 28.9867 69.3011 28.3867 68.8344 27.64C68.3677 26.88 68.1344 26.0333 68.1344 25.1V16H69.7144L69.7344 25.1C69.7344 25.7267 69.8944 26.3 70.2144 26.82C70.5344 27.3267 70.9677 27.7333 71.5144 28.04C72.0611 28.3467 72.6611 28.5 73.3144 28.5C74.0077 28.5 74.6277 28.3533 75.1744 28.06C75.7211 27.7533 76.1477 27.34 76.4544 26.82C76.7744 26.3 76.9344 25.7267 76.9344 25.1V16ZM89.2819 30H87.7019V24.06C87.7019 23.42 87.5619 22.9067 87.2819 22.52C87.0152 22.1333 86.6686 21.86 86.2419 21.7C85.8286 21.5267 85.3952 21.44 84.9419 21.44C84.5019 21.44 84.0619 21.5333 83.6219 21.72C83.1952 21.9067 82.8352 22.1933 82.5419 22.58C82.2486 22.9667 82.1019 23.46 82.1019 24.06V30H80.5219V20H82.1019V21.08C82.4086 20.6667 82.8286 20.3667 83.3619 20.18C83.8952 19.98 84.4486 19.88 85.0219 19.88C85.7952 19.88 86.5019 20.04 87.1419 20.36C87.7952 20.68 88.3152 21.1533 88.7019 21.78C89.0886 22.3933 89.2819 23.1533 89.2819 24.06V30ZM92.1483 18.68C91.855 18.68 91.6017 18.58 91.3883 18.38C91.1883 18.1667 91.0883 17.9133 91.0883 17.62C91.0883 17.3267 91.1883 17.08 91.3883 16.88C91.6017 16.6667 91.855 16.56 92.1483 16.56C92.4417 16.56 92.6883 16.6667 92.8883 16.88C93.1017 17.08 93.2083 17.3267 93.2083 17.62C93.2083 17.9133 93.1017 18.1667 92.8883 18.38C92.6883 18.58 92.4417 18.68 92.1483 18.68ZM92.9083 30H91.4083V20H92.9083V30ZM100.969 17.44C100.183 17.4 99.6027 17.4733 99.2294 17.66C98.8694 17.8333 98.6294 18.12 98.5094 18.52C98.4027 18.9067 98.3494 19.4067 98.3494 20.02H100.209V21.4H98.3494V30.02H96.7894V21.4H95.0094V20.02H96.7894C96.7894 19.1267 96.9027 18.3667 97.1294 17.74C97.3694 17.1 97.7894 16.62 98.3894 16.3C99.0027 15.98 99.8627 15.8533 100.969 15.92V17.44ZM106.412 30.24C105.452 30.24 104.605 30.0333 103.872 29.62C103.152 29.2067 102.585 28.6267 102.172 27.88C101.772 27.12 101.572 26.2333 101.572 25.22C101.572 24.0467 101.785 23.0667 102.212 22.28C102.639 21.4933 103.212 20.9 103.932 20.5C104.665 20.1 105.492 19.9 106.412 19.9C107.359 19.9 108.192 20.1 108.912 20.5C109.645 20.9 110.219 21.4933 110.632 22.28C111.045 23.0667 111.252 24.0467 111.252 25.22C111.252 26.2333 111.045 27.12 110.632 27.88C110.219 28.6267 109.645 29.2067 108.912 29.62C108.192 30.0333 107.359 30.24 106.412 30.24ZM106.412 28.72C107.119 28.72 107.719 28.5667 108.212 28.26C108.705 27.94 109.079 27.5133 109.332 26.98C109.585 26.4467 109.712 25.86 109.712 25.22C109.712 24.1267 109.425 23.2267 108.852 22.52C108.292 21.8 107.479 21.44 106.412 21.44C105.332 21.44 104.512 21.8 103.952 22.52C103.392 23.24 103.112 24.14 103.112 25.22C103.112 25.8733 103.232 26.4667 103.472 27C103.725 27.52 104.099 27.94 104.592 28.26C105.085 28.5667 105.692 28.72 106.412 28.72ZM113.061 30V20.12H114.641V21.04C115.081 20.5467 115.621 20.2467 116.261 20.14C116.914 20.0333 117.734 20.12 118.721 20.4L117.981 21.8C117.381 21.5867 116.821 21.5533 116.301 21.7C115.794 21.8333 115.388 22.0733 115.081 22.42C114.774 22.7667 114.628 23.14 114.641 23.54V30H113.061ZM135.547 30H133.987V24.1C133.987 23.1933 133.747 22.52 133.267 22.08C132.8 21.64 132.193 21.42 131.447 21.42C130.673 21.42 130.033 21.64 129.527 22.08C129.02 22.52 128.767 23.1933 128.767 24.1V30H127.227V24.1C127.227 23.1667 126.973 22.4867 126.467 22.06C125.96 21.6333 125.327 21.42 124.567 21.42C124.167 21.42 123.76 21.5133 123.347 21.7C122.933 21.8867 122.587 22.18 122.307 22.58C122.04 22.9667 121.907 23.4733 121.907 24.1V30H120.327V20H121.907V21.02C122.24 20.6467 122.64 20.3667 123.107 20.18C123.573 19.9933 124.06 19.8933 124.567 19.88C125.22 19.88 125.86 20.0133 126.487 20.28C127.127 20.5333 127.66 20.94 128.087 21.5C128.447 20.9533 128.94 20.5533 129.567 20.3C130.193 20.0333 130.847 19.9 131.527 19.9C132.233 19.9 132.893 20.0667 133.507 20.4C134.12 20.72 134.613 21.1933 134.987 21.82C135.36 22.4467 135.547 23.2067 135.547 24.1V30ZM146.578 25.48H138.798C138.825 26.3467 139.058 27.0333 139.498 27.54C139.938 28.0467 140.498 28.38 141.178 28.54C141.858 28.7 142.585 28.6867 143.358 28.5C144.132 28.3133 144.865 27.96 145.558 27.44L146.398 28.68C145.745 29.1867 145.065 29.56 144.358 29.8C143.652 30.04 142.945 30.1667 142.238 30.18C140.572 30.22 139.298 29.76 138.418 28.8C137.538 27.8267 137.098 26.4733 137.098 24.74C137.098 23.26 137.512 22.08 138.338 21.2C139.178 20.32 140.392 19.8867 141.978 19.9C143.018 19.9 143.905 20.1133 144.638 20.54C145.372 20.9667 145.912 21.6 146.258 22.44C146.432 22.8533 146.538 23.3133 146.578 23.82C146.632 24.3267 146.632 24.88 146.578 25.48ZM142.058 21.38C141.152 21.38 140.378 21.62 139.738 22.1C139.112 22.5667 138.798 23.2667 138.798 24.2H145.158C145.158 23.32 144.878 22.6333 144.318 22.14C143.772 21.6333 143.018 21.38 142.058 21.38ZM148.369 28.84L149.309 27.82C149.722 28.1267 150.135 28.3667 150.549 28.54C150.962 28.7 151.382 28.7733 151.809 28.76C152.062 28.76 152.302 28.7267 152.529 28.66C152.755 28.5933 152.969 28.48 153.169 28.32C153.422 28.1333 153.589 27.8933 153.669 27.6C153.762 27.3067 153.762 27.0267 153.669 26.76C153.562 26.4667 153.369 26.2333 153.089 26.06C152.809 25.8867 152.475 25.74 152.089 25.62C151.715 25.4867 151.322 25.3533 150.909 25.22C150.509 25.0733 150.135 24.8933 149.789 24.68C149.189 24.28 148.802 23.8267 148.629 23.32C148.455 22.8 148.455 22.2933 148.629 21.8C148.815 21.2933 149.142 20.8667 149.609 20.52C150.089 20.1733 150.682 19.9733 151.389 19.92C152.069 19.88 152.729 19.96 153.369 20.16C154.009 20.36 154.509 20.64 154.869 21L153.869 21.96C153.535 21.7333 153.175 21.5667 152.789 21.46C152.402 21.3533 152.029 21.3 151.669 21.3C151.242 21.3133 150.875 21.4133 150.569 21.6C150.275 21.7867 150.109 22.0867 150.069 22.5C150.042 22.8867 150.169 23.1933 150.449 23.42C150.729 23.6333 151.115 23.8267 151.609 24C152.102 24.16 152.635 24.3467 153.209 24.56C153.875 24.8267 154.389 25.2133 154.749 25.72C155.122 26.2133 155.235 26.8467 155.089 27.62C154.995 28.34 154.702 28.9067 154.209 29.32C153.729 29.7333 153.142 29.9933 152.449 30.1C151.755 30.2067 151.042 30.16 150.309 29.96C149.589 29.7467 148.942 29.3733 148.369 28.84ZM164.365 30L169.045 16H171.065L175.765 30H174.065L172.885 26.44H167.225L166.045 30H164.365ZM170.065 17.92L167.665 25.1H172.445L170.065 17.92ZM187.733 30L186.173 28.34C185.306 29.1 184.439 29.6067 183.573 29.86C182.706 30.1133 181.886 30.1667 181.113 30.02C180.353 29.8867 179.679 29.6067 179.093 29.18C178.519 28.7533 178.073 28.2333 177.753 27.62C177.433 27.0067 177.293 26.3533 177.333 25.66C177.373 24.9667 177.626 24.28 178.093 23.6C178.573 22.92 179.319 22.3133 180.333 21.78L179.433 20.66C179.059 20.1667 178.866 19.64 178.853 19.08C178.839 18.5067 178.973 17.9733 179.253 17.48C179.533 16.9733 179.926 16.56 180.433 16.24C180.953 15.92 181.559 15.76 182.253 15.76C183.226 15.76 183.986 15.9667 184.533 16.38C185.079 16.78 185.513 17.3933 185.833 18.22L184.453 18.74C184.253 18.2067 183.979 17.82 183.633 17.58C183.299 17.3267 182.839 17.2133 182.253 17.24C181.773 17.2667 181.366 17.4333 181.033 17.74C180.713 18.0333 180.526 18.3867 180.473 18.8C180.433 19.2133 180.579 19.6133 180.913 20L186.133 26.02C186.279 25.7267 186.386 25.4267 186.453 25.12C186.519 24.8133 186.566 24.4667 186.593 24.08C186.619 23.68 186.626 23.1867 186.613 22.6H188.053C188.066 23.5733 188.026 24.42 187.933 25.14C187.839 25.8467 187.573 26.54 187.133 27.22L189.693 30H187.733ZM185.193 27.28L181.233 22.78C180.353 23.26 179.733 23.7867 179.373 24.36C179.013 24.92 178.859 25.48 178.913 26.04C178.979 26.6 179.199 27.0933 179.573 27.52C179.946 27.9467 180.426 28.2533 181.013 28.44C181.613 28.6267 182.273 28.64 182.993 28.48C183.726 28.3067 184.459 27.9067 185.193 27.28ZM200.798 30H198.918L195.318 24.1H193.078V30H191.498L191.518 16H196.858C197.512 16 198.098 16.1933 198.618 16.58C199.152 16.9533 199.578 17.4467 199.898 18.06C200.218 18.6733 200.378 19.34 200.378 20.06C200.378 20.6733 200.232 21.2667 199.938 21.84C199.658 22.4133 199.278 22.9 198.798 23.3C198.318 23.7 197.772 23.94 197.158 24.02L200.798 30ZM198.778 20.06C198.778 19.66 198.692 19.2733 198.518 18.9C198.345 18.5133 198.112 18.2 197.818 17.96C197.525 17.7067 197.185 17.58 196.798 17.58H193.078V22.48H196.758C197.132 22.48 197.465 22.3533 197.758 22.1C198.065 21.8467 198.312 21.5333 198.498 21.16C198.685 20.7867 198.778 20.42 198.778 20.06Z" fill="white"/>
<defs>
<filter id="filter0_d_41_593" x="0.411421" y="0.060835" width="57.5031" height="46.2265" filterUnits="userSpaceOnUse" color-interpolation-filters="sRGB">
<feFlood flood-opacity="0" result="BackgroundImageFix"/>
<feColorMatrix in="SourceAlpha" type="matrix" values="0 0 0 0 0 0 0 0 0 0 0 0 0 0 0 0 0 0 127 0" result="hardAlpha"/>
<feOffset dx="1.42" dy="1.42"/>
<feGaussianBlur stdDeviation="1.42"/>
<feColorMatrix type="matrix" values="0 0 0 0 0 0 0 0 0 0 0 0 0 0 0 0 0 0 0.75 0"/>
<feBlend mode="normal" in2="BackgroundImageFix" result="effect1_dropShadow_41_593"/>
<feBlend mode="normal" in="SourceGraphic" in2="effect1_dropShadow_41_593" result="shape"/>
</filter>
<clipPath id="clip0_41_593">
<rect width="56.2625" height="45" fill="white" transform="translate(0.337524)"/>
</clipPath>
</defs>
</svg>
