<svg width="71" height="68" viewBox="0 0 71 68" fill="none" xmlns="http://www.w3.org/2000/svg">
<ellipse cx="34.5" cy="32.5" rx="33.5" ry="31.5" fill="white"/>
<path d="M34.7757 0.427246H36.6659C44.901 0.734254 52.1212 3.33688 58.3265 8.23513C66.0837 14.3584 70.5912 23.3188 70.9211 32.8595V34.5832C70.3094 52.361 55.3998 66.5159 36.5119 67.0323H34.8623C16.0652 66.4755 1.24766 52.4247 0.53833 34.6976V32.8439C1.24216 15.096 15.9263 1.04126 34.7757 0.427246ZM58.4103 22.8206C58.4103 21.6948 57.9377 20.6151 57.0965 19.8191C56.2553 19.023 55.1144 18.5758 53.9248 18.5758H17.5347C16.345 18.5758 15.2041 19.023 14.3629 19.8191C13.5217 20.6151 13.0492 21.6948 13.0492 22.8206V44.639C13.0492 45.7648 13.5217 46.8444 14.3629 47.6405C15.2041 48.4365 16.345 48.8837 17.5347 48.8837H53.9248C55.1144 48.8837 56.2553 48.4365 57.0965 47.6405C57.9377 46.8444 58.4103 45.7648 58.4103 44.639V22.8206Z" fill="#053A6C"/>
<path d="M20.372 22.022H51.093C51.1043 22.022 51.1153 22.0254 51.1245 22.0316C51.1337 22.0379 51.1407 22.0466 51.1445 22.0567C51.1482 22.0668 51.1486 22.0778 51.1455 22.0881C51.1425 22.0984 51.1361 22.1076 51.1274 22.1143L35.7669 33.657C35.7571 33.6644 35.745 33.6685 35.7325 33.6685C35.72 33.6685 35.7079 33.6644 35.6981 33.657L20.3376 22.1143C20.3289 22.1076 20.3225 22.0984 20.3194 22.0881C20.3164 22.0778 20.3167 22.0668 20.3205 22.0567C20.3243 22.0466 20.3312 22.0379 20.3404 22.0316C20.3497 22.0254 20.3607 22.022 20.372 22.022Z" fill="#053A6C"/>
<path d="M34.4788 37.16C35.3187 37.7935 36.2301 37.7051 37.0398 37.0963C42.9316 32.6733 48.8239 28.2464 54.7166 23.8156C54.7212 23.8118 54.7269 23.8094 54.733 23.8086C54.7391 23.8078 54.7452 23.8087 54.7508 23.8112C54.7563 23.8137 54.761 23.8176 54.7642 23.8226C54.7674 23.8275 54.769 23.8332 54.7688 23.839C54.7688 30.6938 54.7688 37.5546 54.7688 44.4215C54.7688 45.1279 54.4912 45.4362 53.7543 45.4375C41.7526 45.4384 29.7509 45.4384 17.7491 45.4375C17.125 45.4362 16.692 45.2203 16.692 44.5946C16.6902 37.6799 16.6897 30.7632 16.6906 23.8442C16.6907 23.8374 16.6928 23.8308 16.6966 23.8251C16.7004 23.8194 16.7058 23.8148 16.7122 23.8118C16.7186 23.8088 16.7258 23.8076 16.7329 23.8083C16.74 23.809 16.7468 23.8115 16.7525 23.8156C22.6645 28.2611 28.5732 32.7093 34.4788 37.16Z" fill="#053A6C"/>
</svg>
