<svg width="71" height="68" viewBox="0 0 71 68" fill="none" xmlns="http://www.w3.org/2000/svg">
<path d="M35.3715 5H36.8246C53.3927 5.50977 66.449 17.7589 67 33.2421V34.5166C66.5907 50.2604 53.3963 62.4404 36.7193 63H35.3267C18.6267 62.5401 5.62242 50.3046 5 34.7862V33.2286C5.58367 17.6501 18.7151 5.43953 35.3715 5Z" fill="white"/>
<path d="M35.0163 0.417969H36.6659C55.474 1.00336 70.2957 15.0698 70.9211 32.8502V34.3137C70.4565 52.3933 55.4782 66.3804 36.5463 67.023H34.9654C16.0074 66.4949 1.24491 52.4441 0.53833 34.6233V32.8346C1.20092 14.9449 16.1078 0.92271 35.0163 0.417969ZM49.4819 34.9641C54.2726 24.9513 45.4912 13.566 33.8822 14.9956C26.2968 15.9297 20.7679 21.9176 20.6662 29.1466C20.6332 31.5337 21.2916 33.7049 22.4477 35.8461C26.0933 42.6029 30.7026 48.5479 35.7765 54.2705C35.78 54.2746 35.7844 54.2779 35.7893 54.2801C35.7943 54.2824 35.7998 54.2836 35.8053 54.2836C35.8109 54.2836 35.8163 54.2824 35.8213 54.2801C35.8263 54.2779 35.8307 54.2746 35.8342 54.2705C41.0222 48.397 46.228 41.7665 49.4819 34.9641Z" fill="#053A6C"/>
<path d="M35.7421 33.1824C38.5959 33.1824 40.9094 30.993 40.9094 28.2924C40.9094 25.5917 38.5959 23.4023 35.7421 23.4023C32.8882 23.4023 30.5747 25.5917 30.5747 28.2924C30.5747 30.993 32.8882 33.1824 35.7421 33.1824Z" fill="#053A6C"/>
</svg>
