<svg width="71" height="67" viewBox="0 0 71 67" fill="none" xmlns="http://www.w3.org/2000/svg">
<circle cx="33" cy="36" r="25" fill="white"/>
<path d="M34.7757 0.249512H36.6659C55.5414 0.855722 70.2393 14.8896 70.9211 32.6818V34.4054C70.6091 43.7379 66.2871 52.5111 58.9396 58.5732C52.5767 63.8235 45.1008 66.584 36.5119 66.8546H34.8623C16.1023 66.2367 1.20229 52.3589 0.53833 34.5199V32.6662C0.925069 23.952 4.24213 16.5192 10.4895 10.3678C16.8968 4.05719 25.4926 0.604652 34.7757 0.249512ZM18.1766 42.8703C18.1927 42.897 18.2031 42.9266 18.2071 42.9572C18.2111 42.9877 18.2087 43.0188 18.2 43.0485L15.2692 53.1693C15.2656 53.1813 15.2654 53.1939 15.2687 53.2059C15.272 53.2179 15.2786 53.2289 15.288 53.2378C15.2974 53.2467 15.3091 53.2531 15.322 53.2563C15.3348 53.2596 15.3484 53.2597 15.3613 53.2565L26.2885 50.5468C26.361 50.5284 26.4382 50.5367 26.5044 50.5702C38.8598 56.6765 53.9702 50.2866 57.0247 37.3558C58.7609 30.0072 55.9552 22.2578 49.7266 17.5304C40.3417 10.4068 26.8948 12.0238 19.6242 21.0844C14.531 27.4301 14.1008 36.0354 18.1766 42.8703Z" fill="#053A6C"/>
<path d="M22.0271 42.3722C19.8469 39.2969 18.754 35.6805 19.0097 31.9834C19.5788 23.7956 26.4082 17.1117 35.1387 16.499C46.3477 15.712 55.5002 24.9573 53.7736 35.5374C52.6313 42.5452 46.6817 48.3198 39.1541 49.367C34.822 49.9689 30.7709 49.1611 27.0007 46.9435C26.9585 46.9192 26.9136 46.9127 26.8659 46.924L20.4394 48.5189C20.4244 48.5226 20.4087 48.5225 20.3937 48.5187C20.3788 48.5148 20.3652 48.5073 20.3543 48.4969C20.3434 48.4864 20.3357 48.4735 20.3318 48.4593C20.3279 48.4451 20.328 48.4302 20.3322 48.4161L22.0491 42.4932C22.061 42.4498 22.0537 42.4095 22.0271 42.3722ZM39.5225 37.8243C39.3424 38.0091 39.0881 38.0832 38.8351 37.9921C35.5479 36.8109 33.0363 34.7755 31.3006 31.8858C30.7645 30.9921 33.4025 29.6678 32.8993 28.5217C32.3449 27.259 31.7891 25.9976 31.2319 24.7375C30.9927 24.1976 30.7975 23.8386 30.1184 23.823C29.4379 23.8073 28.488 23.689 27.9327 24.1547C24.8149 26.7694 25.4638 30.2584 27.5643 33.2153C29.9617 36.5937 33.1495 39.7366 37.0371 41.2886C40.1782 42.5439 43.2794 43.491 46.0755 41.0375C46.9195 40.2973 47.1821 39.1005 47.1381 38.0533C47.123 37.7059 47.002 37.624 46.701 37.4809C44.9084 36.6319 43.52 36.0001 42.5357 35.5855C42.1 35.4021 41.6807 35.3331 41.3769 35.7078C40.6566 36.5933 40.0384 37.2988 39.5225 37.8243Z" fill="#053A6C"/>
</svg>
